<?xml version="1.0" encoding="UTF-8" standalone="no"?>
<!DOCTYPE svg PUBLIC "-//W3C//DTD SVG 1.1//EN" "http://www.w3.org/Graphics/SVG/1.1/DTD/svg11.dtd">
<svg xmlns="http://www.w3.org/2000/svg" version="1.1" viewBox="0.00 0.00 1536.00 1024.00">
<g stroke-width="2.00" fill="none" stroke-linecap="butt">
<path stroke="#3b6915" vector-effect="non-scaling-stroke" d="
  M 383.54 338.01
  Q 387.61 340.25 391.32 342.45
  Q 394.47 344.31 395.99 346.78
  Q 399.95 353.24 402.47 361.27
  Q 405.26 370.11 408.08 379.48
  A 1.93 1.93 0.0 0 0 409.81 380.85
  Q 425.48 381.73 441.87 384.75
  Q 459.67 388.04 475.34 397.86
  C 495.68 410.60 506.32 433.12 511.79 455.78
  C 512.54 458.87 513.88 460.40 516.73 461.16
  A 0.93 0.93 0.0 0 0 517.88 460.48
  C 522.76 439.77 531.83 418.15 548.86 404.27
  Q 567.70 388.92 589.88 384.14
  Q 615.57 378.61 640.85 383.12
  Q 649.51 384.66 658.26 389.38
  C 675.61 398.72 681.43 417.63 677.10 436.33
  A 0.56 0.56 0.0 0 0 677.75 437.01
  C 690.97 434.54 704.24 435.61 715.21 444.28
  A 3.59 3.50 1.8 0 1 715.95 445.05
  L 717.62 447.41
  A 0.52 0.52 0.0 0 0 718.35 447.54
  Q 744.22 429.18 775.97 430.41
  Q 792.48 431.04 803.29 440.39
  A 0.90 0.90 0.0 0 0 804.27 440.51
  Q 804.48 440.41 807.71 438.71
  C 818.93 432.84 835.19 432.59 847.05 435.06
  C 849.17 435.50 851.81 436.72 853.44 437.39
  A 0.86 0.84 -59.0 0 0 854.41 437.14
  Q 857.88 432.83 862.48 429.71
  Q 884.73 414.61 911.34 418.21
  Q 919.05 419.26 926.10 423.01
  A 2.27 2.25 -60.0 0 0 929.08 422.20
  C 943.56 398.91 968.53 383.48 996.07 381.92
  C 1008.16 381.23 1020.53 382.17 1030.97 387.64
  C 1044.86 394.92 1052.50 407.96 1055.46 423.29
  Q 1058.14 437.17 1056.35 447.05
  A 0.34 0.34 0.0 0 0 1056.84 447.41
  Q 1081.24 435.08 1108.78 438.49
  Q 1120.79 439.98 1131.43 447.10
  Q 1138.29 451.69 1141.67 455.06
  A 0.57 0.57 0.0 0 0 1142.48 455.05
  Q 1164.06 432.44 1194.67 436.88
  C 1199.27 437.54 1203.94 439.44 1207.79 441.80
  A 1.12 1.12 0.0 0 0 1209.25 441.55
  C 1213.10 436.75 1218.77 433.44 1224.39 430.78
  C 1238.92 423.91 1258.34 423.10 1271.75 433.47
  A 2.51 2.50 -39.3 0 0 1274.40 433.73
  C 1290.08 425.96 1311.07 426.12 1324.72 437.43
  A 1.14 1.14 0.0 0 0 1325.94 437.59
  C 1336.18 432.93 1345.90 432.16 1356.50 433.54
  C 1372.00 435.55 1385.60 444.58 1393.75 457.81
  C 1402.65 472.25 1403.07 491.64 1399.27 507.77
  Q 1398.44 511.28 1395.71 520.73
  A 0.92 0.92 0.0 0 0 1395.93 521.61
  Q 1397.47 523.18 1398.51 524.24
  C 1406.47 532.31 1406.37 543.02 1403.91 553.94"
/>
<path stroke="#15452f" vector-effect="non-scaling-stroke" d="
  M 1403.91 553.94
  C 1399.41 570.68 1388.40 583.48 1373.84 592.53
  C 1362.32 599.68 1345.20 605.15 1330.34 604.46
  Q 1309.71 603.49 1298.65 586.47
  A 0.69 0.69 0.0 0 0 1297.82 586.21
  Q 1272.58 596.27 1245.01 601.00
  Q 1231.47 603.32 1218.26 601.03
  C 1212.31 600.00 1206.94 597.91 1202.88 593.79
  Q 1202.01 592.91 1201.38 592.32
  A 0.87 0.86 50.9 0 0 1200.34 592.21
  Q 1191.46 597.45 1181.97 598.61
  Q 1155.72 601.80 1137.11 583.95
  A 2.28 2.28 0.0 0 0 1134.23 583.73
  Q 1128.83 587.52 1123.03 590.15
  Q 1100.90 600.19 1075.93 599.84
  Q 1064.44 599.68 1045.25 599.05
  Q 1044.42 599.03 1022.67 599.29
  Q 1013.13 599.41 1005.38 600.40
  Q 991.73 602.15 988.22 602.94
  Q 970.19 607.01 958.25 608.99
  C 951.50 610.11 943.15 608.87 940.10 601.70
  Q 939.30 599.83 938.13 598.43
  A 0.49 0.48 -44.3 0 0 937.39 598.43
  Q 932.16 604.51 924.11 611.11
  Q 904.62 627.09 878.68 626.09
  C 867.04 625.64 855.79 621.77 847.88 613.32
  Q 838.84 603.67 836.34 590.32
  A 0.50 0.50 0.0 0 0 835.51 590.05
  C 833.98 591.49 831.83 593.92 829.78 595.27
  C 814.51 605.34 793.67 601.06 781.04 588.91
  A 0.75 0.74 -45.3 0 0 780.00 588.92
  C 771.02 597.82 757.99 605.48 745.42 607.23
  C 731.86 609.12 720.70 608.01 709.98 599.97
  A 0.76 0.75 -49.7 0 0 708.97 600.06
  Q 698.53 611.36 683.45 612.95
  Q 674.40 613.90 668.44 610.21
  Q 661.64 606.00 659.63 597.81
  A 0.34 0.34 0.0 0 0 659.07 597.65
  Q 658.46 598.22 655.01 601.50
  Q 643.09 612.81 629.51 619.61
  C 607.62 630.58 580.76 632.72 556.88 627.92
  Q 553.49 627.24 548.85 625.65
  Q 542.39 623.42 540.98 622.79
  Q 530.57 618.05 523.03 611.43
  C 514.01 603.50 505.62 592.61 500.72 580.94
  A 0.26 0.26 0.0 0 0 500.26 580.90
  Q 495.37 588.90 488.74 595.93
  Q 468.50 617.36 441.71 604.46
  A 1.52 1.50 37.1 0 0 440.05 604.68
  C 431.96 611.84 423.70 615.27 412.08 620.11
  C 389.15 629.66 367.18 636.94 342.45 642.69
  Q 311.07 649.99 279.30 645.13
  Q 239.43 639.04 210.77 610.52
  Q 191.40 591.24 179.67 567.58
  Q 171.15 550.41 163.81 530.65
  Q 161.25 523.79 156.96 515.23
  Q 153.06 507.43 151.66 499.18
  A 0.35 0.35 0.0 0 0 150.97 499.21
  C 150.42 507.26 150.68 515.90 151.88 524.54
  Q 157.06 561.92 177.88 593.90
  Q 186.31 606.84 197.03 617.22
  Q 207.34 627.22 211.53 630.45
  Q 231.05 645.49 254.37 654.04
  Q 258.31 655.49 265.30 657.14
  Q 273.77 659.14 276.38 659.62
  Q 296.84 663.39 317.93 661.45
  Q 327.81 660.55 347.18 656.81
  C 357.27 654.87 371.68 650.10 379.01 648.09
  C 386.06 646.15 393.44 642.80 400.93 640.19
  Q 420.42 633.39 439.59 622.97
  A 2.22 2.16 -82.7 0 0 440.22 622.47
  Q 442.51 619.93 445.88 620.87
  C 451.10 622.31 456.09 623.86 461.68 624.13
  C 474.30 624.75 487.94 617.30 496.86 608.70
  A 1.31 1.28 20.6 0 1 497.68 608.34
  L 498.78 608.28"
/>
<path stroke="#3b6915" vector-effect="non-scaling-stroke" d="
  M 165.92 451.98
  Q 168.79 449.82 170.34 447.84
  C 172.55 445.01 176.30 444.36 180.64 443.08
  A 5.02 4.98 11.9 0 0 183.02 441.54
  C 193.92 428.77 204.98 416.16 217.26 404.62
  C 220.11 401.95 221.69 399.47 224.14 396.14
  Q 228.35 390.42 235.71 386.56
  Q 240.52 384.04 245.30 381.35"
/>
<path stroke="#205f26" vector-effect="non-scaling-stroke" d="
  M 1414.56 557.04
  Q 1414.64 557.65 1414.50 558.22
  C 1412.31 567.06 1408.90 575.20 1403.58 582.64
  Q 1393.70 596.43 1379.50 605.56
  Q 1376.27 607.63 1372.86 609.13
  Q 1368.38 611.11 1365.96 612.17
  Q 1357.08 616.05 1347.47 617.12
  A 0.98 0.94 20.9 0 0 1346.93 617.35
  Q 1346.32 617.86 1345.61 617.83
  Q 1343.27 617.74 1339.38 618.41
  Q 1336.49 618.91 1333.15 618.90
  Q 1310.43 618.87 1294.21 603.67
  A 1.98 1.96 56.0 0 0 1292.17 603.26
  C 1288.57 604.61 1283.57 606.77 1278.90 607.99
  Q 1259.40 613.09 1247.92 615.08
  Q 1240.21 616.42 1233.24 616.75
  Q 1215.36 617.60 1199.99 609.50
  A 3.96 3.93 49.5 0 0 1196.89 609.25
  Q 1187.13 612.58 1176.31 613.66
  Q 1171.19 614.18 1166.77 613.57
  Q 1158.78 612.48 1157.22 611.96
  Q 1145.77 608.15 1135.62 600.53
  A 1.27 1.27 0.0 0 0 1134.22 600.44
  C 1121.46 607.78 1107.01 611.88 1092.91 613.57
  Q 1083.24 614.74 1065.75 615.08
  C 1061.47 615.16 1055.82 614.18 1051.08 614.13
  Q 1033.48 613.97 1021.11 614.17
  C 1018.09 614.21 1015.17 614.95 1011.80 615.09
  Q 1009.26 615.20 1004.78 615.75
  Q 993.66 617.12 990.27 617.54
  Q 985.18 618.18 963.95 622.97
  A 3.67 3.63 -50.5 0 1 963.06 623.06
  C 960.44 622.99 958.39 623.99 955.76 624.02
  Q 950.03 624.09 949.02 624.08
  A 4.12 4.01 51.5 0 1 947.76 623.92
  L 936.68 620.65
  A 2.10 2.09 -57.0 0 0 934.71 621.07
  Q 907.97 644.21 872.74 640.55
  Q 868.46 640.10 864.95 638.97
  C 852.38 634.93 841.93 629.40 833.90 619.18
  A 2.65 2.61 13.7 0 1 833.61 618.71
  Q 831.85 615.23 829.42 612.19
  A 0.92 0.91 -22.7 0 0 828.58 611.85
  Q 828.05 611.93 823.52 613.06
  Q 810.32 616.35 797.88 613.60
  Q 790.38 611.94 783.95 607.82
  A 4.98 4.96 -42.1 0 0 779.02 607.58
  C 777.71 608.24 776.48 609.54 774.83 610.63
  Q 767.26 615.63 757.06 618.83
  C 746.92 622.01 736.83 622.71 727.43 622.01
  Q 722.12 621.61 714.88 618.40
  Q 712.86 617.50 711.38 618.12
  C 705.57 620.54 700.85 623.19 695.33 624.87
  Q 687.35 627.30 678.70 627.12
  Q 674.80 627.05 671.38 626.18
  Q 665.89 624.78 664.38 623.89
  Q 659.28 620.89 656.24 619.28
  A 1.06 1.05 -51.5 0 0 655.05 619.42
  Q 647.62 626.04 641.18 629.90
  Q 636.22 632.88 626.95 636.82
  Q 620.38 639.62 611.91 641.56
  Q 592.01 646.13 571.49 644.95
  Q 569.18 644.82 568.40 644.63
  C 565.80 644.02 563.32 644.11 560.69 643.65
  C 546.17 641.15 531.58 635.63 519.87 626.78
  Q 513.10 621.68 511.76 620.50
  Q 506.07 615.49 500.92 608.48
  A 0.69 0.67 76.6 0 0 500.50 608.21
  Q 499.96 608.12 499.76 608.48"
/>
<path stroke="#47830c" vector-effect="non-scaling-stroke" d="
  M 1416.58 536.68
  Q 1416.33 543.25 1416.10 549.75
  Q 1416.04 551.41 1414.56 557.04"
/>
<path stroke="#50ab24" vector-effect="non-scaling-stroke" d="
  M 1414.56 557.04
  Q 1414.23 557.27 1414.14 557.67
  Q 1413.89 558.84 1413.86 557.82
  Q 1413.84 557.16 1413.36 556.62
  A 1.75 1.68 76.8 0 0 1412.59 556.12
  Q 1409.18 555.02 1405.45 553.70
  Q 1405.35 553.66 1405.09 553.71
  Q 1404.74 553.78 1404.77 554.09
  A 0.28 0.27 79.2 0 1 1404.57 554.39
  Q 1404.10 554.51 1403.91 553.94"
/>
<path stroke="#502e81" vector-effect="non-scaling-stroke" d="
  M 276.57 451.43
  C 284.58 454.37 291.44 457.41 296.69 464.16
  C 303.40 472.80 298.73 485.67 294.16 494.23
  Q 288.03 505.71 280.60 515.99"
/>
<path stroke="#808190" vector-effect="non-scaling-stroke" d="
  M 280.60 515.99
  Q 276.18 521.65 272.18 526.96
  Q 270.60 529.06 271.09 530.88
  Q 274.36 542.79 275.40 546.41
  Q 295.82 617.42 296.05 618.18
  C 300.06 631.61 316.19 624.39 324.62 621.10
  Q 376.21 600.93 420.74 582.20
  A 0.49 0.49 0.0 0 0 420.77 581.31
  L 406.38 574.26"
/>
<path stroke="#502e81" vector-effect="non-scaling-stroke" d="
  M 406.38 574.26
  Q 394.30 568.68 386.75 561.26
  C 382.42 557.02 379.33 551.77 382.24 545.71
  Q 382.98 544.17 384.64 541.60
  Q 393.19 528.36 400.64 514.64
  Q 406.76 503.37 411.05 492.33"
/>
<path stroke="#808190" vector-effect="non-scaling-stroke" d="
  M 411.05 492.33
  Q 415.03 483.76 417.46 475.57
  Q 418.09 473.48 417.55 471.73
  Q 390.82 384.56 383.98 361.36
  C 381.93 354.41 375.35 355.06 369.76 356.99
  Q 293.83 383.12 247.47 398.48
  Q 243.58 399.77 240.89 401.92
  C 232.31 408.81 239.41 427.50 244.03 435.51
  C 247.20 441.01 252.77 444.17 258.75 446.23
  Q 267.74 449.31 276.57 451.43"
/>
<path stroke="#d0acf0" vector-effect="non-scaling-stroke" d="
  M 411.05 492.33
  Q 410.86 490.58 411.61 488.90
  Q 412.59 486.69 412.62 486.43
  C 412.89 483.90 410.71 479.46 410.25 478.00
  Q 394.09 427.11 379.75 378.26
  Q 378.13 372.76 375.59 370.41
  Q 372.29 367.36 367.13 369.26
  Q 352.21 374.75 351.88 374.87
  Q 311.11 389.24 270.08 403.85
  Q 266.08 405.27 263.81 406.34
  C 259.22 408.51 256.77 413.98 257.68 418.88
  Q 258.77 424.78 264.05 427.77
  Q 270.32 431.31 280.57 435.89
  A 0.62 0.62 0.0 0 1 280.92 436.64
  L 276.57 451.43"
/>
<path stroke="#d0acf0" vector-effect="non-scaling-stroke" d="
  M 406.38 574.26
  Q 395.21 579.84 379.86 585.58
  Q 335.42 602.20 323.99 605.71
  Q 317.13 607.81 311.60 605.63
  C 305.05 603.05 303.41 596.16 301.56 590.01
  Q 291.46 556.42 281.26 520.68
  A 0.35 0.31 41.4 0 1 281.25 520.60
  L 280.60 515.99"
/>
<path stroke="#3b6915" vector-effect="non-scaling-stroke" d="
  M 415.15 408.27
  L 425.50 443.29
  A 0.93 0.93 0.0 0 0 426.27 443.95
  Q 449.81 446.93 468.94 461.12
  Q 473.04 464.16 477.33 467.44"
/>
<path stroke="#808163" vector-effect="non-scaling-stroke" d="
  M 477.33 467.44
  L 479.08 473.47
  A 1.87 1.87 0.0 0 0 480.37 474.75
  L 496.02 479.11
  A 0.21 0.21 0.0 0 0 496.28 478.91
  C 496.34 458.94 492.45 437.11 480.56 420.69
  C 464.76 398.85 436.96 394.28 411.51 394.01
  A 0.44 0.44 0.0 0 0 411.08 394.58
  L 415.15 408.27"
/>
<path stroke="#bbe758" vector-effect="non-scaling-stroke" d="
  M 477.33 467.44
  Q 477.69 465.44 477.05 463.28"
/>
<path stroke="#94c371" vector-effect="non-scaling-stroke" d="
  M 477.05 463.28
  Q 474.65 449.11 466.52 434.72
  Q 457.96 419.58 442.90 413.36
  Q 433.28 409.39 423.07 408.32"
/>
<path stroke="#bbe758" vector-effect="non-scaling-stroke" d="
  M 423.07 408.32
  L 415.15 408.27"
/>
<path stroke="#50ab24" vector-effect="non-scaling-stroke" d="
  M 423.07 408.32
  L 422.40 408.61
  A 0.41 0.41 0.0 0 0 422.53 409.40
  C 439.42 411.01 455.19 418.07 464.30 432.94
  Q 473.25 447.57 476.31 464.34
  A 0.31 0.31 0.0 0 0 476.92 464.32
  L 477.05 463.28"
/>
<path stroke="#808190" vector-effect="non-scaling-stroke" d="
  M 549.48 514.44
  A 1.06 1.06 0.0 0 0 547.76 514.19
  Q 546.17 515.90 544.05 518.80
  Q 527.24 541.72 518.30 553.32
  Q 516.86 555.20 516.46 557.28
  A 2.44 2.43 -47.1 0 0 516.50 558.39
  Q 522.96 582.43 546.79 591.24
  Q 557.35 595.14 569.24 595.89
  Q 593.43 597.41 612.95 588.96
  C 625.96 583.32 637.87 572.55 642.60 559.12
  C 646.61 547.73 646.78 535.37 645.10 523.14
  C 643.46 511.25 637.73 501.77 628.28 494.68
  C 619.38 488.01 609.06 482.05 600.98 476.03
  Q 596.61 472.78 593.58 468.82
  C 586.79 459.93 593.26 450.16 603.26 449.11
  Q 619.37 447.41 631.34 457.25
  A 0.62 0.61 -48.8 0 0 632.19 457.19
  Q 641.96 446.49 645.09 442.87
  C 649.17 438.14 654.72 429.81 656.42 422.44
  C 657.28 418.67 657.42 415.76 655.26 412.48
  Q 650.28 404.91 641.88 401.39
  C 630.42 396.58 614.90 396.08 601.49 397.21
  C 577.54 399.22 555.84 411.91 544.96 433.47
  C 536.14 450.93 538.54 470.95 551.87 485.21
  C 562.22 496.29 577.72 504.50 589.31 511.20
  C 593.86 513.83 597.90 516.85 601.46 520.32
  Q 606.06 524.80 604.85 530.37
  C 603.46 536.71 596.64 540.56 590.49 540.97
  C 572.68 542.14 557.15 529.57 549.48 514.44"
/>
<path stroke="#808190" vector-effect="non-scaling-stroke" d="
  M 959.39 409.96
  A 1.01 1.00 -48.7 0 0 959.47 411.23
  C 965.97 418.23 969.78 426.60 972.28 436.38
  C 977.02 454.92 977.72 475.35 976.82 494.86
  Q 975.67 519.72 965.25 541.34
  C 961.64 548.83 957.81 554.13 951.79 563.04
  C 948.06 568.55 944.20 574.88 950.29 580.03
  Q 953.02 582.33 957.28 581.28
  Q 958.23 581.05 976.02 576.29
  Q 983.61 574.26 998.31 572.33
  Q 1009.42 570.87 1018.73 570.91
  Q 1037.96 570.98 1039.25 571.01
  Q 1041.88 571.09 1044.28 572.07
  A 4.70 4.67 3.2 0 1 1047.00 575.09
  L 1047.99 578.48
  A 2.21 2.20 -10.2 0 0 1050.27 580.06
  C 1059.60 579.37 1062.94 571.24 1063.05 563.01
  Q 1063.16 554.32 1063.00 551.52
  C 1062.43 541.43 1058.21 530.14 1047.58 527.85
  Q 1042.39 526.74 1036.24 527.04
  Q 1023.50 527.68 1009.47 529.69
  Q 1006.30 530.14 1003.31 529.94
  A 0.54 0.54 0.0 0 1 1002.86 529.19
  Q 1010.90 510.17 1016.29 490.23
  C 1020.59 474.32 1023.84 459.58 1024.47 444.49
  Q 1024.97 432.53 1026.04 427.44
  C 1027.58 420.16 1027.04 415.04 1022.94 409.60
  C 1015.30 399.46 1005.94 397.53 993.11 397.91
  Q 975.10 398.45 960.37 409.10
  Q 959.62 409.64 959.39 409.96"
/>
<path stroke="#346e89" vector-effect="non-scaling-stroke" d="
  M 174.50 502.45
  Q 175.45 506.37 177.00 508.99
  Q 183.89 520.59 195.04 530.49
  Q 211.24 544.88 230.79 553.42
  A 0.33 0.32 -80.0 0 0 231.24 553.10
  C 229.65 531.02 236.69 509.90 247.63 491.13
  Q 254.72 478.97 256.90 475.26
  A 2.27 2.27 0.0 0 1 259.82 474.36
  L 259.84 474.37
  A 1.87 1.87 0.0 0 1 260.62 477.05
  Q 253.34 488.59 246.05 504.28
  C 238.59 520.32 233.48 537.84 237.29 554.85
  A 4.54 4.53 8.8 0 0 239.45 557.80
  L 241.44 558.95
  A 0.75 0.74 -85.2 0 0 242.51 558.04
  C 238.70 547.67 241.20 535.09 246.34 525.10
  C 254.74 508.78 265.45 494.02 276.82 478.58
  Q 279.62 474.77 276.25 471.91
  Q 271.61 467.97 264.07 465.04
  C 254.28 461.24 245.48 458.22 238.69 452.78
  Q 231.23 446.81 225.90 437.31"
/>
<path stroke="#808190" vector-effect="non-scaling-stroke" d="
  M 225.90 437.31
  L 220.35 423.18
  A 0.37 0.37 0.0 0 0 219.72 423.08
  Q 204.71 441.08 191.06 460.28
  Q 186.06 467.32 178.19 480.94
  Q 172.39 491.00 174.50 502.45"
/>
<path stroke="#b4ecf8" vector-effect="non-scaling-stroke" d="
  M 225.90 437.31
  Q 205.94 465.67 184.28 491.63
  Q 182.38 493.91 179.42 497.05
  Q 177.00 499.63 174.50 502.45"
/>
<path stroke="#808190" vector-effect="non-scaling-stroke" d="
  M 910.08 550.55
  Q 912.84 550.89 918.72 551.18
  Q 924.95 551.48 927.87 550.99
  C 959.99 545.70 966.45 506.03 964.91 480.02
  C 964.15 467.32 958.81 453.22 949.27 444.30
  C 938.19 433.97 921.55 439.40 911.85 448.59
  Q 909.36 450.95 904.37 456.16
  A 0.72 0.72 0.0 0 1 903.18 455.40
  C 905.64 449.32 910.32 436.26 899.10 435.20
  Q 885.14 433.88 872.59 441.48
  C 866.50 445.16 869.07 450.83 871.58 456.41
  Q 873.50 460.67 874.44 468.26
  C 876.65 486.05 876.11 498.80 875.96 522.81
  C 875.91 531.40 875.07 540.72 874.36 551.53
  Q 874.06 556.06 871.78 566.80
  C 870.59 572.42 868.67 575.79 865.27 581.78
  Q 863.16 585.49 864.43 590.33
  C 867.38 601.52 887.43 600.59 895.18 596.63
  Q 907.41 590.39 909.47 575.70
  Q 910.88 565.63 909.62 550.99
  A 0.41 0.41 0.0 0 1 910.08 550.55"
/>
<path stroke="#808190" vector-effect="non-scaling-stroke" d="
  M 1259.55 466.30
  C 1261.39 462.46 1263.21 458.80 1263.04 453.50
  C 1262.55 438.17 1243.34 439.89 1232.81 442.79
  Q 1228.89 443.88 1226.30 445.85
  Q 1223.96 447.63 1225.51 450.53
  Q 1231.02 460.85 1231.68 472.78
  Q 1233.37 503.18 1228.41 534.15
  C 1226.90 543.59 1224.45 552.06 1222.62 560.32
  C 1221.32 566.17 1221.99 571.81 1228.44 573.36
  C 1236.93 575.40 1252.83 573.43 1253.65 561.87
  Q 1253.85 558.92 1254.20 547.76
  C 1254.72 530.79 1261.14 516.21 1271.61 500.89
  C 1273.11 498.70 1276.53 496.63 1278.92 498.72
  C 1283.39 502.63 1283.58 508.91 1282.14 514.38
  Q 1280.90 519.12 1275.93 535.94
  C 1274.78 539.84 1273.81 547.82 1275.87 551.94
  C 1277.58 555.37 1280.90 555.50 1284.51 554.65
  C 1293.23 552.61 1300.08 545.45 1304.93 537.94
  C 1312.54 526.18 1319.95 508.46 1323.45 500.92
  C 1325.90 495.63 1329.93 488.35 1335.17 484.22
  A 1.09 1.09 0.0 0 1 1336.69 484.38
  C 1341.75 490.53 1330.70 517.80 1326.62 529.13
  Q 1323.78 537.03 1321.55 547.75
  C 1317.90 565.30 1327.03 575.97 1344.85 575.09
  C 1362.65 574.22 1376.82 560.89 1383.44 545.05
  A 2.34 2.12 -60.4 0 0 1382.85 542.40
  C 1376.95 537.80 1367.70 549.59 1363.01 539.97
  Q 1361.20 536.25 1362.65 530.61
  Q 1362.73 530.29 1369.46 508.02
  Q 1373.02 496.23 1373.81 484.82
  C 1374.84 469.90 1371.01 451.27 1352.76 449.93
  C 1339.03 448.92 1328.17 453.80 1318.39 463.89
  Q 1311.67 470.82 1306.81 477.79
  A 2.03 1.99 12.3 0 1 1305.49 478.62
  L 1305.45 478.63
  A 0.45 0.45 0.0 0 1 1304.97 477.98
  Q 1310.28 467.04 1312.12 461.41
  C 1315.38 451.42 1309.90 445.96 1300.22 445.87
  Q 1285.59 445.74 1273.73 454.36
  C 1269.24 457.62 1264.30 463.63 1260.39 466.95
  A 0.54 0.54 0.0 0 1 1259.55 466.30"
/>
<path stroke="#808190" vector-effect="non-scaling-stroke" d="
  M 689.88 529.71
  A 0.48 0.48 0.0 0 1 689.08 529.60
  Q 688.19 527.65 688.07 525.49
  Q 686.61 499.39 685.24 477.43
  Q 685.01 473.71 685.02 470.57
  C 685.05 466.51 685.09 462.15 681.93 459.42
  C 678.19 456.20 669.29 458.68 664.89 460.66
  Q 655.01 465.10 646.92 471.42
  A 1.93 1.92 -26.2 0 0 646.23 473.43
  Q 650.39 489.42 654.34 506.69
  Q 661.16 536.49 664.27 569.83
  Q 665.29 580.74 675.49 581.88
  Q 693.12 583.86 701.42 568.14
  Q 705.33 560.73 706.66 556.43
  C 708.72 549.79 710.73 542.04 714.14 539.54
  A 0.68 0.68 0.0 0 1 715.20 539.90
  Q 715.89 542.21 716.02 544.50
  Q 716.05 545.21 717.16 562.12
  C 717.75 571.18 721.46 577.11 731.07 578.05
  Q 738.01 578.72 744.39 577.61
  C 759.88 574.92 765.43 557.41 768.08 544.12
  Q 768.54 541.79 772.55 521.26
  C 776.11 503.01 785.81 476.79 791.18 460.22
  C 794.50 449.99 787.88 446.52 779.01 446.34
  C 762.73 446.00 747.86 452.34 735.09 462.34
  Q 733.65 463.47 734.50 465.71
  Q 740.16 480.57 741.69 495.51
  Q 741.92 497.70 742.47 504.50
  C 743.29 514.55 742.48 524.20 740.84 534.45
  A 0.82 0.82 0.0 0 1 739.26 534.61
  C 736.37 526.91 734.63 519.81 733.83 510.62
  Q 732.63 496.91 732.39 495.09
  Q 731.50 488.29 730.12 485.13
  C 728.01 480.28 724.02 476.84 718.99 480.85
  Q 717.19 482.29 714.67 486.65
  Q 703.93 505.29 692.36 526.10
  Q 691.25 528.08 689.88 529.71"
/>
<path stroke="#808190" vector-effect="non-scaling-stroke" d="
  M 834.95 546.71
  C 834.68 556.39 836.71 565.84 848.44 565.99
  Q 856.39 566.08 861.73 561.23
  C 865.54 557.76 866.15 553.45 866.11 548.51
  Q 865.88 524.08 866.65 501.01
  Q 866.92 492.75 865.93 483.27
  C 864.36 468.16 857.98 452.69 840.27 451.87
  C 824.56 451.14 810.68 458.39 800.81 469.99
  C 791.73 480.67 786.49 496.18 783.57 510.30
  C 781.32 521.21 779.34 533.11 780.07 544.30
  C 780.55 551.78 782.93 558.58 788.30 562.97
  C 798.90 571.62 814.95 565.43 823.62 556.97
  Q 828.00 552.70 833.96 546.30
  A 0.57 0.57 0.0 0 1 834.95 546.71"
/>
<path stroke="#808190" vector-effect="non-scaling-stroke" d="
  M 1153.18 466.16
  Q 1154.43 472.51 1153.65 475.31
  Q 1149.31 490.81 1147.59 497.05
  Q 1143.76 510.97 1143.86 530.63
  C 1143.93 544.17 1146.32 558.10 1158.51 564.67
  Q 1167.40 569.46 1180.47 567.72
  Q 1204.18 564.57 1214.50 541.09
  C 1220.92 526.50 1221.95 510.13 1220.66 494.28
  Q 1219.21 476.33 1207.86 463.54
  C 1202.76 457.80 1195.39 453.29 1188.27 452.42
  Q 1170.56 450.27 1154.99 462.18
  Q 1153.73 463.14 1153.20 465.24
  A 2.19 2.14 -44.4 0 0 1153.18 466.16"
/>
<path stroke="#808190" vector-effect="non-scaling-stroke" d="
  M 1038.00 518.67
  A 1.50 1.49 3.5 0 0 1039.36 520.20
  Q 1040.61 520.32 1048.99 521.47
  Q 1056.93 522.56 1062.98 529.17
  C 1069.38 536.18 1070.87 545.55 1071.70 554.76
  Q 1072.40 562.44 1074.14 564.82
  Q 1077.55 569.51 1082.69 570.09
  C 1110.21 573.21 1129.81 552.31 1134.95 527.02
  C 1138.37 510.20 1137.95 493.29 1131.70 477.08
  C 1126.80 464.38 1116.46 455.17 1102.76 454.02
  C 1079.04 452.03 1060.38 464.94 1049.23 485.22
  Q 1041.44 499.41 1038.72 512.72
  Q 1038.10 515.80 1038.00 518.67"
/>
<path stroke="#808163" vector-effect="non-scaling-stroke" d="
  M 422.23 564.35
  Q 438.17 572.83 454.02 581.53
  Q 456.15 582.70 457.80 581.03
  Q 468.23 570.47 475.69 557.66
  Q 493.18 527.60 495.88 491.64
  A 0.95 0.95 0.0 0 0 495.17 490.65
  L 479.25 486.59"
/>
<path stroke="#3b6915" vector-effect="non-scaling-stroke" d="
  M 479.25 486.59
  Q 468.18 482.83 456.34 479.74
  Q 453.11 478.89 449.66 478.17"
/>
<path stroke="#15452f" vector-effect="non-scaling-stroke" d="
  M 449.66 478.17
  Q 449.88 478.42 448.96 478.15"
/>
<path stroke="#808190" vector-effect="non-scaling-stroke" d="
  M 448.96 478.15
  Q 448.69 477.59 448.04 477.44
  Q 441.24 475.85 434.22 474.93
  A 0.84 0.84 0.0 0 0 433.29 475.58
  C 428.72 495.81 419.28 512.66 408.70 532.49
  Q 405.91 537.72 405.36 539.80
  C 403.60 546.37 404.12 552.74 409.83 556.94
  Q 415.07 560.79 422.23 564.35"
/>
<path stroke="#94c39e" vector-effect="non-scaling-stroke" d="
  M 448.96 478.15
  Q 447.65 494.56 441.96 510.13"
/>
<path stroke="#ffffd2" vector-effect="non-scaling-stroke" d="
  M 441.96 510.13
  Q 440.55 503.81 442.90 496.66
  Q 444.51 491.76 445.99 484.31
  Q 446.10 483.79 445.78 482.56
  A 0.37 0.36 -26.6 0 0 445.20 482.37
  Q 439.97 486.59 437.94 491.20
  Q 435.95 495.70 429.50 513.79
  C 427.56 519.25 425.59 523.28 423.17 528.67
  C 421.95 531.40 418.73 543.48 424.35 543.09
  A 0.78 0.77 -85.4 0 0 425.05 542.49
  Q 425.64 539.82 427.19 536.78
  Q 427.88 535.43 428.97 535.30
  Q 429.14 535.28 429.37 536.31"
/>
<path stroke="#94c39e" vector-effect="non-scaling-stroke" d="
  M 429.37 536.31
  Q 425.39 541.26 427.89 546.12
  Q 432.74 555.58 444.89 556.72"
/>
<path stroke="#ffffd2" vector-effect="non-scaling-stroke" d="
  M 444.89 556.72
  Q 445.76 556.78 446.33 557.11
  A 0.73 0.73 0.0 0 1 445.90 558.46
  L 440.25 558.02
  A 2.46 2.41 65.4 0 1 439.00 557.54
  Q 436.85 555.91 434.41 556.74
  Q 428.22 558.84 422.13 560.95
  A 1.00 0.99 62.3 0 0 421.66 562.48
  Q 422.10 563.08 422.23 564.35"
/>
<path stroke="#50ab24" vector-effect="non-scaling-stroke" d="
  M 449.66 478.17
  Q 449.70 480.64 449.46 482.72
  Q 446.50 508.33 434.99 529.06
  Q 432.76 533.07 429.65 537.70
  Q 425.83 543.38 430.33 548.72
  C 433.80 552.83 441.81 556.69 447.66 554.87
  Q 451.55 553.66 453.41 551.88
  Q 462.25 543.37 467.56 531.86
  C 471.62 523.07 475.16 512.15 476.44 502.51
  Q 476.99 498.40 477.92 490.56
  A 0.42 0.42 0.0 0 1 478.64 490.33
  Q 478.79 490.48 478.80 491.04"
/>
<path stroke="#94c371" vector-effect="non-scaling-stroke" d="
  M 478.80 491.04
  Q 477.68 510.49 470.25 528.41
  Q 465.80 539.14 457.47 548.97
  Q 451.96 555.49 444.89 556.72"
/>
<path stroke="#94c371" vector-effect="non-scaling-stroke" d="
  M 429.37 536.31
  Q 437.71 524.00 441.96 510.13"
/>
<path stroke="#bbe758" vector-effect="non-scaling-stroke" d="
  M 479.25 486.59
  L 478.80 491.04"
/>
<path stroke="#502e81" vector-effect="non-scaling-stroke" d="
  M 222.50 594.00
  C 234.03 606.36 249.55 614.40 265.79 617.39
  Q 271.79 618.50 280.96 619.53
  A 0.38 0.38 0.0 0 0 281.37 619.05
  L 272.17 587.61
  A 2.09 2.09 0.0 0 0 270.47 586.12
  Q 262.22 584.89 254.01 582.50
  Q 242.56 579.15 233.36 571.88"
/>
<path stroke="#808190" vector-effect="non-scaling-stroke" d="
  M 233.36 571.88
  Q 219.83 564.77 206.13 557.79
  Q 196.48 552.89 189.21 547.15
  A 0.36 0.35 -85.1 0 0 188.68 547.60
  Q 194.99 559.48 202.76 570.74
  Q 211.72 583.72 222.50 594.00"
/>
<path stroke="#d0acf0" vector-effect="non-scaling-stroke" d="
  M 233.36 571.88
  Q 229.19 583.73 222.50 594.00"
/>
<path stroke="#d0acf0" vector-effect="non-scaling-stroke" d="
  M 354.13 396.62
  C 351.24 399.70 347.97 402.17 344.54 404.76
  A 0.53 0.53 0.0 0 0 344.56 405.62
  Q 352.23 410.92 360.33 418.76
  A 1.19 1.18 45.1 0 0 361.97 418.77
  Q 363.27 417.53 369.43 410.94
  Q 375.59 404.36 376.75 402.98
  A 1.19 1.18 41.1 0 0 376.63 401.35
  Q 368.27 393.78 362.48 386.48
  A 0.53 0.53 0.0 0 0 361.63 386.52
  C 359.27 390.11 357.02 393.53 354.13 396.62"
/>
<path stroke="#d0acf0" vector-effect="non-scaling-stroke" d="
  M 302.48 480.01
  Q 303.34 481.70 304.85 483.68
  Q 309.75 490.12 316.76 496.04
  Q 322.90 501.23 325.67 504.08
  C 332.00 510.62 335.74 515.32 342.04 521.59
  A 1.20 1.20 0.0 0 0 343.74 521.59
  C 350.54 514.88 356.86 510.60 366.21 503.84
  C 368.77 502.00 371.85 498.87 373.27 497.27
  Q 380.06 489.61 387.97 481.00
  A 1.08 1.08 0.0 0 0 387.57 479.26
  Q 379.28 475.93 367.26 470.80
  C 363.99 469.40 360.92 468.28 357.89 466.21
  Q 355.40 464.51 352.03 459.90
  Q 343.97 448.88 336.52 437.57
  A 0.56 0.56 0.0 0 0 335.56 437.62
  Q 327.91 452.28 315.49 465.76
  Q 307.67 474.24 302.67 478.92
  A 0.92 0.91 -35.6 0 0 302.48 480.01"
/>
<path stroke="#d0acf0" vector-effect="non-scaling-stroke" d="
  M 344.59 563.07
  Q 335.93 557.54 327.47 550.04
  Q 325.32 548.13 324.04 546.18
  A 0.50 0.50 0.0 0 0 323.15 546.29
  C 321.12 552.03 315.84 557.07 311.16 562.11
  A 2.03 2.02 -38.9 0 0 310.90 564.52
  Q 316.12 573.44 319.13 581.68
  A 0.67 0.67 0.0 0 0 320.31 581.84
  Q 326.19 573.40 335.56 568.55
  Q 344.37 563.98 344.58 563.85
  A 0.46 0.46 0.0 0 0 344.59 563.07"
/>
<path stroke="#808190" vector-effect="non-scaling-stroke" d="
  M 912.98 481.62
  A 2.67 2.64 -17.3 0 0 911.99 483.48
  Q 911.83 485.32 909.27 507.75
  C 908.73 512.46 907.94 519.71 913.47 520.83
  Q 923.44 522.85 928.41 513.53
  Q 935.32 500.55 933.04 485.52
  C 932.52 482.13 930.60 476.85 927.31 475.25
  C 923.28 473.30 915.88 479.29 912.98 481.62"
/>
<path stroke="#808190" vector-effect="non-scaling-stroke" d="
  M 833.78 477.25
  Q 830.26 478.36 828.28 481.84
  Q 819.29 497.63 817.16 515.50
  A 8.01 7.95 43.4 0 0 817.24 518.01
  Q 818.06 522.33 818.76 523.15
  Q 822.80 527.95 827.22 523.83
  C 835.38 516.22 838.41 501.15 838.96 490.53
  C 839.15 486.91 838.37 482.46 836.81 479.03
  A 2.96 2.27 67.9 0 0 833.78 477.25"
/>
<path stroke="#808190" vector-effect="non-scaling-stroke" d="
  M 1188.25 482.73
  C 1184.48 480.56 1180.10 484.95 1178.34 487.98
  C 1172.62 497.82 1163.92 521.24 1175.73 530.22
  C 1180.40 533.77 1184.92 530.78 1187.13 526.36
  C 1192.70 515.21 1192.70 504.22 1192.13 491.48
  C 1191.99 488.23 1191.27 484.47 1188.25 482.73"
/>
<path stroke="#808190" vector-effect="non-scaling-stroke" d="
  M 1098.32 485.72
  C 1091.72 489.64 1087.22 500.15 1085.52 507.24
  Q 1083.32 516.35 1084.38 525.08
  C 1084.92 529.48 1088.99 535.83 1094.02 535.90
  C 1100.84 536.00 1105.10 525.17 1106.30 519.50
  C 1108.37 509.63 1110.43 498.28 1105.79 488.99
  C 1104.43 486.27 1101.39 483.90 1098.32 485.72"
/>
</g>
<path fill="#000320" d="
  M 383.54 338.01
  Q 387.61 340.25 391.32 342.45
  Q 394.47 344.31 395.99 346.78
  Q 399.95 353.24 402.47 361.27
  Q 405.26 370.11 408.08 379.48
  A 1.93 1.93 0.0 0 0 409.81 380.85
  Q 425.48 381.73 441.87 384.75
  Q 459.67 388.04 475.34 397.86
  C 495.68 410.60 506.32 433.12 511.79 455.78
  C 512.54 458.87 513.88 460.40 516.73 461.16
  A 0.93 0.93 0.0 0 0 517.88 460.48
  C 522.76 439.77 531.83 418.15 548.86 404.27
  Q 567.70 388.92 589.88 384.14
  Q 615.57 378.61 640.85 383.12
  Q 649.51 384.66 658.26 389.38
  C 675.61 398.72 681.43 417.63 677.10 436.33
  A 0.56 0.56 0.0 0 0 677.75 437.01
  C 690.97 434.54 704.24 435.61 715.21 444.28
  A 3.59 3.50 1.8 0 1 715.95 445.05
  L 717.62 447.41
  A 0.52 0.52 0.0 0 0 718.35 447.54
  Q 744.22 429.18 775.97 430.41
  Q 792.48 431.04 803.29 440.39
  A 0.90 0.90 0.0 0 0 804.27 440.51
  Q 804.48 440.41 807.71 438.71
  C 818.93 432.84 835.19 432.59 847.05 435.06
  C 849.17 435.50 851.81 436.72 853.44 437.39
  A 0.86 0.84 -59.0 0 0 854.41 437.14
  Q 857.88 432.83 862.48 429.71
  Q 884.73 414.61 911.34 418.21
  Q 919.05 419.26 926.10 423.01
  A 2.27 2.25 -60.0 0 0 929.08 422.20
  C 943.56 398.91 968.53 383.48 996.07 381.92
  C 1008.16 381.23 1020.53 382.17 1030.97 387.64
  C 1044.86 394.92 1052.50 407.96 1055.46 423.29
  Q 1058.14 437.17 1056.35 447.05
  A 0.34 0.34 0.0 0 0 1056.84 447.41
  Q 1081.24 435.08 1108.78 438.49
  Q 1120.79 439.98 1131.43 447.10
  Q 1138.29 451.69 1141.67 455.06
  A 0.57 0.57 0.0 0 0 1142.48 455.05
  Q 1164.06 432.44 1194.67 436.88
  C 1199.27 437.54 1203.94 439.44 1207.79 441.80
  A 1.12 1.12 0.0 0 0 1209.25 441.55
  C 1213.10 436.75 1218.77 433.44 1224.39 430.78
  C 1238.92 423.91 1258.34 423.10 1271.75 433.47
  A 2.51 2.50 -39.3 0 0 1274.40 433.73
  C 1290.08 425.96 1311.07 426.12 1324.72 437.43
  A 1.14 1.14 0.0 0 0 1325.94 437.59
  C 1336.18 432.93 1345.90 432.16 1356.50 433.54
  C 1372.00 435.55 1385.60 444.58 1393.75 457.81
  C 1402.65 472.25 1403.07 491.64 1399.27 507.77
  Q 1398.44 511.28 1395.71 520.73
  A 0.92 0.92 0.0 0 0 1395.93 521.61
  Q 1397.47 523.18 1398.51 524.24
  C 1406.47 532.31 1406.37 543.02 1403.91 553.94
  C 1399.41 570.68 1388.40 583.48 1373.84 592.53
  C 1362.32 599.68 1345.20 605.15 1330.34 604.46
  Q 1309.71 603.49 1298.65 586.47
  A 0.69 0.69 0.0 0 0 1297.82 586.21
  Q 1272.58 596.27 1245.01 601.00
  Q 1231.47 603.32 1218.26 601.03
  C 1212.31 600.00 1206.94 597.91 1202.88 593.79
  Q 1202.01 592.91 1201.38 592.32
  A 0.87 0.86 50.9 0 0 1200.34 592.21
  Q 1191.46 597.45 1181.97 598.61
  Q 1155.72 601.80 1137.11 583.95
  A 2.28 2.28 0.0 0 0 1134.23 583.73
  Q 1128.83 587.52 1123.03 590.15
  Q 1100.90 600.19 1075.93 599.84
  Q 1064.44 599.68 1045.25 599.05
  Q 1044.42 599.03 1022.67 599.29
  Q 1013.13 599.41 1005.38 600.40
  Q 991.73 602.15 988.22 602.94
  Q 970.19 607.01 958.25 608.99
  C 951.50 610.11 943.15 608.87 940.10 601.70
  Q 939.30 599.83 938.13 598.43
  A 0.49 0.48 -44.3 0 0 937.39 598.43
  Q 932.16 604.51 924.11 611.11
  Q 904.62 627.09 878.68 626.09
  C 867.04 625.64 855.79 621.77 847.88 613.32
  Q 838.84 603.67 836.34 590.32
  A 0.50 0.50 0.0 0 0 835.51 590.05
  C 833.98 591.49 831.83 593.92 829.78 595.27
  C 814.51 605.34 793.67 601.06 781.04 588.91
  A 0.75 0.74 -45.3 0 0 780.00 588.92
  C 771.02 597.82 757.99 605.48 745.42 607.23
  C 731.86 609.12 720.70 608.01 709.98 599.97
  A 0.76 0.75 -49.7 0 0 708.97 600.06
  Q 698.53 611.36 683.45 612.95
  Q 674.40 613.90 668.44 610.21
  Q 661.64 606.00 659.63 597.81
  A 0.34 0.34 0.0 0 0 659.07 597.65
  Q 658.46 598.22 655.01 601.50
  Q 643.09 612.81 629.51 619.61
  C 607.62 630.58 580.76 632.72 556.88 627.92
  Q 553.49 627.24 548.85 625.65
  Q 542.39 623.42 540.98 622.79
  Q 530.57 618.05 523.03 611.43
  C 514.01 603.50 505.62 592.61 500.72 580.94
  A 0.26 0.26 0.0 0 0 500.26 580.90
  Q 495.37 588.90 488.74 595.93
  Q 468.50 617.36 441.71 604.46
  A 1.52 1.50 37.1 0 0 440.05 604.68
  C 431.96 611.84 423.70 615.27 412.08 620.11
  C 389.15 629.66 367.18 636.94 342.45 642.69
  Q 311.07 649.99 279.30 645.13
  Q 239.43 639.04 210.77 610.52
  Q 191.40 591.24 179.67 567.58
  Q 171.15 550.41 163.81 530.65
  Q 161.25 523.79 156.96 515.23
  Q 153.06 507.43 151.66 499.18
  A 0.35 0.35 0.0 0 0 150.97 499.21
  C 150.42 507.26 150.68 515.90 151.88 524.54
  Q 157.06 561.92 177.88 593.90
  Q 186.31 606.84 197.03 617.22
  Q 207.34 627.22 211.53 630.45
  Q 231.05 645.49 254.37 654.04
  Q 258.31 655.49 265.30 657.14
  Q 273.77 659.14 276.38 659.62
  Q 296.84 663.39 317.93 661.45
  Q 327.81 660.55 347.18 656.81
  C 357.27 654.87 371.68 650.10 379.01 648.09
  C 386.06 646.15 393.44 642.80 400.93 640.19
  Q 420.42 633.39 439.59 622.97
  A 2.22 2.16 -82.7 0 0 440.22 622.47
  Q 442.51 619.93 445.88 620.87
  C 451.10 622.31 456.09 623.86 461.68 624.13
  C 474.30 624.75 487.94 617.30 496.86 608.70
  A 1.31 1.28 20.6 0 1 497.68 608.34
  L 498.78 608.28
  Q 490.78 616.40 480.44 621.17
  Q 468.38 626.73 456.43 624.52
  C 455.97 624.44 455.44 624.18 455.16 624.17
  Q 449.63 624.02 444.56 621.27
  A 1.00 0.98 39.3 0 0 443.46 621.37
  Q 441.43 623.06 438.68 624.67
  Q 436.41 625.99 424.24 632.00
  Q 418.03 635.06 409.36 638.37
  Q 391.25 645.28 382.31 648.31
  Q 371.93 651.82 358.22 655.45
  Q 336.41 661.23 315.25 662.95
  Q 313.86 663.06 299.43 663.07
  Q 291.10 663.07 283.66 661.94
  Q 269.25 659.74 258.24 656.19
  A 4.56 4.47 53.4 0 0 256.85 655.97
  Q 255.77 655.97 255.65 655.92
  Q 227.47 645.47 207.98 628.99
  Q 205.28 626.71 200.00 621.86
  C 184.92 608.04 172.94 590.80 164.53 572.22
  Q 153.96 548.84 150.58 523.47
  C 149.94 518.68 150.00 513.95 149.59 509.50
  Q 149.26 505.84 149.74 502.02
  C 150.14 498.92 149.80 495.68 150.42 492.02
  Q 154.08 470.45 165.92 451.98
  Q 168.79 449.82 170.34 447.84
  C 172.55 445.01 176.30 444.36 180.64 443.08
  A 5.02 4.98 11.9 0 0 183.02 441.54
  C 193.92 428.77 204.98 416.16 217.26 404.62
  C 220.11 401.95 221.69 399.47 224.14 396.14
  Q 228.35 390.42 235.71 386.56
  Q 240.52 384.04 245.30 381.35
  Q 261.60 375.90 277.91 370.30
  Q 296.03 364.07 310.52 359.25
  Q 332.55 351.92 361.42 341.80
  Q 365.59 340.34 369.91 339.25
  Q 376.34 337.64 378.56 337.33
  Q 380.39 337.07 383.54 338.01
  Z
  M 276.57 451.43
  C 284.58 454.37 291.44 457.41 296.69 464.16
  C 303.40 472.80 298.73 485.67 294.16 494.23
  Q 288.03 505.71 280.60 515.99
  Q 276.18 521.65 272.18 526.96
  Q 270.60 529.06 271.09 530.88
  Q 274.36 542.79 275.40 546.41
  Q 295.82 617.42 296.05 618.18
  C 300.06 631.61 316.19 624.39 324.62 621.10
  Q 376.21 600.93 420.74 582.20
  A 0.49 0.49 0.0 0 0 420.77 581.31
  L 406.38 574.26
  Q 394.30 568.68 386.75 561.26
  C 382.42 557.02 379.33 551.77 382.24 545.71
  Q 382.98 544.17 384.64 541.60
  Q 393.19 528.36 400.64 514.64
  Q 406.76 503.37 411.05 492.33
  Q 415.03 483.76 417.46 475.57
  Q 418.09 473.48 417.55 471.73
  Q 390.82 384.56 383.98 361.36
  C 381.93 354.41 375.35 355.06 369.76 356.99
  Q 293.83 383.12 247.47 398.48
  Q 243.58 399.77 240.89 401.92
  C 232.31 408.81 239.41 427.50 244.03 435.51
  C 247.20 441.01 252.77 444.17 258.75 446.23
  Q 267.74 449.31 276.57 451.43
  Z
  M 415.15 408.27
  L 425.50 443.29
  A 0.93 0.93 0.0 0 0 426.27 443.95
  Q 449.81 446.93 468.94 461.12
  Q 473.04 464.16 477.33 467.44
  L 479.08 473.47
  A 1.87 1.87 0.0 0 0 480.37 474.75
  L 496.02 479.11
  A 0.21 0.21 0.0 0 0 496.28 478.91
  C 496.34 458.94 492.45 437.11 480.56 420.69
  C 464.76 398.85 436.96 394.28 411.51 394.01
  A 0.44 0.44 0.0 0 0 411.08 394.58
  L 415.15 408.27
  Z
  M 549.48 514.44
  A 1.06 1.06 0.0 0 0 547.76 514.19
  Q 546.17 515.90 544.05 518.80
  Q 527.24 541.72 518.30 553.32
  Q 516.86 555.20 516.46 557.28
  A 2.44 2.43 -47.1 0 0 516.50 558.39
  Q 522.96 582.43 546.79 591.24
  Q 557.35 595.14 569.24 595.89
  Q 593.43 597.41 612.95 588.96
  C 625.96 583.32 637.87 572.55 642.60 559.12
  C 646.61 547.73 646.78 535.37 645.10 523.14
  C 643.46 511.25 637.73 501.77 628.28 494.68
  C 619.38 488.01 609.06 482.05 600.98 476.03
  Q 596.61 472.78 593.58 468.82
  C 586.79 459.93 593.26 450.16 603.26 449.11
  Q 619.37 447.41 631.34 457.25
  A 0.62 0.61 -48.8 0 0 632.19 457.19
  Q 641.96 446.49 645.09 442.87
  C 649.17 438.14 654.72 429.81 656.42 422.44
  C 657.28 418.67 657.42 415.76 655.26 412.48
  Q 650.28 404.91 641.88 401.39
  C 630.42 396.58 614.90 396.08 601.49 397.21
  C 577.54 399.22 555.84 411.91 544.96 433.47
  C 536.14 450.93 538.54 470.95 551.87 485.21
  C 562.22 496.29 577.72 504.50 589.31 511.20
  C 593.86 513.83 597.90 516.85 601.46 520.32
  Q 606.06 524.80 604.85 530.37
  C 603.46 536.71 596.64 540.56 590.49 540.97
  C 572.68 542.14 557.15 529.57 549.48 514.44
  Z
  M 959.39 409.96
  A 1.01 1.00 -48.7 0 0 959.47 411.23
  C 965.97 418.23 969.78 426.60 972.28 436.38
  C 977.02 454.92 977.72 475.35 976.82 494.86
  Q 975.67 519.72 965.25 541.34
  C 961.64 548.83 957.81 554.13 951.79 563.04
  C 948.06 568.55 944.20 574.88 950.29 580.03
  Q 953.02 582.33 957.28 581.28
  Q 958.23 581.05 976.02 576.29
  Q 983.61 574.26 998.31 572.33
  Q 1009.42 570.87 1018.73 570.91
  Q 1037.96 570.98 1039.25 571.01
  Q 1041.88 571.09 1044.28 572.07
  A 4.70 4.67 3.2 0 1 1047.00 575.09
  L 1047.99 578.48
  A 2.21 2.20 -10.2 0 0 1050.27 580.06
  C 1059.60 579.37 1062.94 571.24 1063.05 563.01
  Q 1063.16 554.32 1063.00 551.52
  C 1062.43 541.43 1058.21 530.14 1047.58 527.85
  Q 1042.39 526.74 1036.24 527.04
  Q 1023.50 527.68 1009.47 529.69
  Q 1006.30 530.14 1003.31 529.94
  A 0.54 0.54 0.0 0 1 1002.86 529.19
  Q 1010.90 510.17 1016.29 490.23
  C 1020.59 474.32 1023.84 459.58 1024.47 444.49
  Q 1024.97 432.53 1026.04 427.44
  C 1027.58 420.16 1027.04 415.04 1022.94 409.60
  C 1015.30 399.46 1005.94 397.53 993.11 397.91
  Q 975.10 398.45 960.37 409.10
  Q 959.62 409.64 959.39 409.96
  Z
  M 174.50 502.45
  Q 175.45 506.37 177.00 508.99
  Q 183.89 520.59 195.04 530.49
  Q 211.24 544.88 230.79 553.42
  A 0.33 0.32 -80.0 0 0 231.24 553.10
  C 229.65 531.02 236.69 509.90 247.63 491.13
  Q 254.72 478.97 256.90 475.26
  A 2.27 2.27 0.0 0 1 259.82 474.36
  L 259.84 474.37
  A 1.87 1.87 0.0 0 1 260.62 477.05
  Q 253.34 488.59 246.05 504.28
  C 238.59 520.32 233.48 537.84 237.29 554.85
  A 4.54 4.53 8.8 0 0 239.45 557.80
  L 241.44 558.95
  A 0.75 0.74 -85.2 0 0 242.51 558.04
  C 238.70 547.67 241.20 535.09 246.34 525.10
  C 254.74 508.78 265.45 494.02 276.82 478.58
  Q 279.62 474.77 276.25 471.91
  Q 271.61 467.97 264.07 465.04
  C 254.28 461.24 245.48 458.22 238.69 452.78
  Q 231.23 446.81 225.90 437.31
  L 220.35 423.18
  A 0.37 0.37 0.0 0 0 219.72 423.08
  Q 204.71 441.08 191.06 460.28
  Q 186.06 467.32 178.19 480.94
  Q 172.39 491.00 174.50 502.45
  Z
  M 910.08 550.55
  Q 912.84 550.89 918.72 551.18
  Q 924.95 551.48 927.87 550.99
  C 959.99 545.70 966.45 506.03 964.91 480.02
  C 964.15 467.32 958.81 453.22 949.27 444.30
  C 938.19 433.97 921.55 439.40 911.85 448.59
  Q 909.36 450.95 904.37 456.16
  A 0.72 0.72 0.0 0 1 903.18 455.40
  C 905.64 449.32 910.32 436.26 899.10 435.20
  Q 885.14 433.88 872.59 441.48
  C 866.50 445.16 869.07 450.83 871.58 456.41
  Q 873.50 460.67 874.44 468.26
  C 876.65 486.05 876.11 498.80 875.96 522.81
  C 875.91 531.40 875.07 540.72 874.36 551.53
  Q 874.06 556.06 871.78 566.80
  C 870.59 572.42 868.67 575.79 865.27 581.78
  Q 863.16 585.49 864.43 590.33
  C 867.38 601.52 887.43 600.59 895.18 596.63
  Q 907.41 590.39 909.47 575.70
  Q 910.88 565.63 909.62 550.99
  A 0.41 0.41 0.0 0 1 910.08 550.55
  Z
  M 1259.55 466.30
  C 1261.39 462.46 1263.21 458.80 1263.04 453.50
  C 1262.55 438.17 1243.34 439.89 1232.81 442.79
  Q 1228.89 443.88 1226.30 445.85
  Q 1223.96 447.63 1225.51 450.53
  Q 1231.02 460.85 1231.68 472.78
  Q 1233.37 503.18 1228.41 534.15
  C 1226.90 543.59 1224.45 552.06 1222.62 560.32
  C 1221.32 566.17 1221.99 571.81 1228.44 573.36
  C 1236.93 575.40 1252.83 573.43 1253.65 561.87
  Q 1253.85 558.92 1254.20 547.76
  C 1254.72 530.79 1261.14 516.21 1271.61 500.89
  C 1273.11 498.70 1276.53 496.63 1278.92 498.72
  C 1283.39 502.63 1283.58 508.91 1282.14 514.38
  Q 1280.90 519.12 1275.93 535.94
  C 1274.78 539.84 1273.81 547.82 1275.87 551.94
  C 1277.58 555.37 1280.90 555.50 1284.51 554.65
  C 1293.23 552.61 1300.08 545.45 1304.93 537.94
  C 1312.54 526.18 1319.95 508.46 1323.45 500.92
  C 1325.90 495.63 1329.93 488.35 1335.17 484.22
  A 1.09 1.09 0.0 0 1 1336.69 484.38
  C 1341.75 490.53 1330.70 517.80 1326.62 529.13
  Q 1323.78 537.03 1321.55 547.75
  C 1317.90 565.30 1327.03 575.97 1344.85 575.09
  C 1362.65 574.22 1376.82 560.89 1383.44 545.05
  A 2.34 2.12 -60.4 0 0 1382.85 542.40
  C 1376.95 537.80 1367.70 549.59 1363.01 539.97
  Q 1361.20 536.25 1362.65 530.61
  Q 1362.73 530.29 1369.46 508.02
  Q 1373.02 496.23 1373.81 484.82
  C 1374.84 469.90 1371.01 451.27 1352.76 449.93
  C 1339.03 448.92 1328.17 453.80 1318.39 463.89
  Q 1311.67 470.82 1306.81 477.79
  A 2.03 1.99 12.3 0 1 1305.49 478.62
  L 1305.45 478.63
  A 0.45 0.45 0.0 0 1 1304.97 477.98
  Q 1310.28 467.04 1312.12 461.41
  C 1315.38 451.42 1309.90 445.96 1300.22 445.87
  Q 1285.59 445.74 1273.73 454.36
  C 1269.24 457.62 1264.30 463.63 1260.39 466.95
  A 0.54 0.54 0.0 0 1 1259.55 466.30
  Z
  M 689.88 529.71
  A 0.48 0.48 0.0 0 1 689.08 529.60
  Q 688.19 527.65 688.07 525.49
  Q 686.61 499.39 685.24 477.43
  Q 685.01 473.71 685.02 470.57
  C 685.05 466.51 685.09 462.15 681.93 459.42
  C 678.19 456.20 669.29 458.68 664.89 460.66
  Q 655.01 465.10 646.92 471.42
  A 1.93 1.92 -26.2 0 0 646.23 473.43
  Q 650.39 489.42 654.34 506.69
  Q 661.16 536.49 664.27 569.83
  Q 665.29 580.74 675.49 581.88
  Q 693.12 583.86 701.42 568.14
  Q 705.33 560.73 706.66 556.43
  C 708.72 549.79 710.73 542.04 714.14 539.54
  A 0.68 0.68 0.0 0 1 715.20 539.90
  Q 715.89 542.21 716.02 544.50
  Q 716.05 545.21 717.16 562.12
  C 717.75 571.18 721.46 577.11 731.07 578.05
  Q 738.01 578.72 744.39 577.61
  C 759.88 574.92 765.43 557.41 768.08 544.12
  Q 768.54 541.79 772.55 521.26
  C 776.11 503.01 785.81 476.79 791.18 460.22
  C 794.50 449.99 787.88 446.52 779.01 446.34
  C 762.73 446.00 747.86 452.34 735.09 462.34
  Q 733.65 463.47 734.50 465.71
  Q 740.16 480.57 741.69 495.51
  Q 741.92 497.70 742.47 504.50
  C 743.29 514.55 742.48 524.20 740.84 534.45
  A 0.82 0.82 0.0 0 1 739.26 534.61
  C 736.37 526.91 734.63 519.81 733.83 510.62
  Q 732.63 496.91 732.39 495.09
  Q 731.50 488.29 730.12 485.13
  C 728.01 480.28 724.02 476.84 718.99 480.85
  Q 717.19 482.29 714.67 486.65
  Q 703.93 505.29 692.36 526.10
  Q 691.25 528.08 689.88 529.71
  Z
  M 834.95 546.71
  C 834.68 556.39 836.71 565.84 848.44 565.99
  Q 856.39 566.08 861.73 561.23
  C 865.54 557.76 866.15 553.45 866.11 548.51
  Q 865.88 524.08 866.65 501.01
  Q 866.92 492.75 865.93 483.27
  C 864.36 468.16 857.98 452.69 840.27 451.87
  C 824.56 451.14 810.68 458.39 800.81 469.99
  C 791.73 480.67 786.49 496.18 783.57 510.30
  C 781.32 521.21 779.34 533.11 780.07 544.30
  C 780.55 551.78 782.93 558.58 788.30 562.97
  C 798.90 571.62 814.95 565.43 823.62 556.97
  Q 828.00 552.70 833.96 546.30
  A 0.57 0.57 0.0 0 1 834.95 546.71
  Z
  M 1153.18 466.16
  Q 1154.43 472.51 1153.65 475.31
  Q 1149.31 490.81 1147.59 497.05
  Q 1143.76 510.97 1143.86 530.63
  C 1143.93 544.17 1146.32 558.10 1158.51 564.67
  Q 1167.40 569.46 1180.47 567.72
  Q 1204.18 564.57 1214.50 541.09
  C 1220.92 526.50 1221.95 510.13 1220.66 494.28
  Q 1219.21 476.33 1207.86 463.54
  C 1202.76 457.80 1195.39 453.29 1188.27 452.42
  Q 1170.56 450.27 1154.99 462.18
  Q 1153.73 463.14 1153.20 465.24
  A 2.19 2.14 -44.4 0 0 1153.18 466.16
  Z
  M 1038.00 518.67
  A 1.50 1.49 3.5 0 0 1039.36 520.20
  Q 1040.61 520.32 1048.99 521.47
  Q 1056.93 522.56 1062.98 529.17
  C 1069.38 536.18 1070.87 545.55 1071.70 554.76
  Q 1072.40 562.44 1074.14 564.82
  Q 1077.55 569.51 1082.69 570.09
  C 1110.21 573.21 1129.81 552.31 1134.95 527.02
  C 1138.37 510.20 1137.95 493.29 1131.70 477.08
  C 1126.80 464.38 1116.46 455.17 1102.76 454.02
  C 1079.04 452.03 1060.38 464.94 1049.23 485.22
  Q 1041.44 499.41 1038.72 512.72
  Q 1038.10 515.80 1038.00 518.67
  Z
  M 422.23 564.35
  Q 438.17 572.83 454.02 581.53
  Q 456.15 582.70 457.80 581.03
  Q 468.23 570.47 475.69 557.66
  Q 493.18 527.60 495.88 491.64
  A 0.95 0.95 0.0 0 0 495.17 490.65
  L 479.25 486.59
  Q 468.18 482.83 456.34 479.74
  Q 453.11 478.89 449.66 478.17
  Q 449.88 478.42 448.96 478.15
  Q 448.69 477.59 448.04 477.44
  Q 441.24 475.85 434.22 474.93
  A 0.84 0.84 0.0 0 0 433.29 475.58
  C 428.72 495.81 419.28 512.66 408.70 532.49
  Q 405.91 537.72 405.36 539.80
  C 403.60 546.37 404.12 552.74 409.83 556.94
  Q 415.07 560.79 422.23 564.35
  Z
  M 222.50 594.00
  C 234.03 606.36 249.55 614.40 265.79 617.39
  Q 271.79 618.50 280.96 619.53
  A 0.38 0.38 0.0 0 0 281.37 619.05
  L 272.17 587.61
  A 2.09 2.09 0.0 0 0 270.47 586.12
  Q 262.22 584.89 254.01 582.50
  Q 242.56 579.15 233.36 571.88
  Q 219.83 564.77 206.13 557.79
  Q 196.48 552.89 189.21 547.15
  A 0.36 0.35 -85.1 0 0 188.68 547.60
  Q 194.99 559.48 202.76 570.74
  Q 211.72 583.72 222.50 594.00
  Z"
/>
<path fill="#76cf0a" d="
  M 383.54 338.01
  Q 387.66 338.75 391.19 340.35
  C 401.90 345.21 408.96 352.63 414.17 362.93
  Q 416.67 367.87 418.47 372.00
  A 1.27 1.27 0.0 0 0 419.52 372.76
  Q 431.35 373.76 443.56 377.45
  Q 451.65 379.90 463.16 383.84
  Q 474.68 387.78 481.99 392.09
  Q 504.81 405.58 515.75 430.49
  A 0.38 0.38 0.0 0 0 516.44 430.50
  Q 523.16 415.76 534.79 403.77
  Q 557.66 380.20 590.81 373.58
  Q 617.75 368.20 644.74 373.52
  Q 654.47 375.44 664.27 380.76
  C 678.48 388.49 687.94 402.57 689.79 418.47
  Q 690.18 421.83 689.93 424.56
  A 0.99 0.98 -86.4 0 0 690.87 425.63
  Q 703.21 426.09 714.86 431.41
  Q 716.93 432.35 718.45 433.96
  A 1.28 1.26 53.4 0 0 720.00 434.20
  Q 729.05 429.08 738.93 425.48
  Q 741.39 424.58 745.89 423.53
  C 751.03 422.33 755.86 420.98 760.46 420.87
  C 763.10 420.81 767.23 419.89 770.55 420.04
  Q 780.84 420.50 786.02 421.53
  Q 795.13 423.36 802.99 428.15
  Q 804.70 429.19 805.79 429.04
  A 2.33 2.14 25.7 0 0 806.45 428.84
  C 817.65 423.39 830.05 422.80 842.00 424.03
  Q 846.07 424.44 850.79 425.92
  A 1.06 1.05 -53.1 0 0 851.69 425.79
  C 852.51 425.23 853.58 423.67 854.97 422.62
  Q 867.08 413.49 881.75 409.66
  Q 888.92 407.80 897.40 407.58
  Q 905.41 407.38 913.24 408.00
  Q 918.83 408.44 923.78 410.78
  A 0.67 0.66 -56.9 0 0 924.56 410.61
  Q 933.02 400.70 935.42 398.43
  Q 946.16 388.29 959.98 381.22
  C 969.73 376.24 981.14 373.25 991.75 372.10
  Q 995.38 371.71 1005.59 371.79
  Q 1013.35 371.86 1019.36 373.07
  C 1035.16 376.25 1049.73 384.99 1058.16 399.02
  Q 1067.01 413.73 1068.14 431.70
  A 0.52 0.52 0.0 0 0 1068.81 432.16
  Q 1075.69 429.94 1084.57 428.34
  Q 1087.78 427.77 1099.02 427.78
  Q 1107.09 427.79 1113.43 429.08
  Q 1128.76 432.20 1140.99 441.69
  A 0.74 0.73 43.7 0 0 1141.93 441.67
  Q 1151.71 433.18 1166.35 428.65
  Q 1181.25 424.05 1196.55 427.20
  Q 1202.08 428.34 1205.07 430.05
  A 1.29 1.29 0.0 0 0 1206.57 429.89
  L 1208.32 428.31
  A 2.72 1.66 -5.9 0 1 1208.58 428.12
  C 1218.48 421.49 1228.24 417.16 1239.77 416.09
  Q 1243.04 415.79 1250.95 415.87
  C 1259.26 415.95 1267.26 418.70 1274.45 422.86
  A 1.00 1.00 0.0 0 0 1275.42 422.88
  Q 1278.77 421.12 1282.75 420.21
  Q 1305.32 415.07 1325.78 425.95
  A 2.87 2.86 48.9 0 0 1328.11 426.11
  C 1332.75 424.39 1337.61 423.21 1342.76 423.03
  Q 1354.48 422.62 1362.96 424.38
  Q 1369.29 425.70 1376.56 428.98
  Q 1405.30 441.97 1411.51 473.00
  C 1412.16 476.26 1412.89 481.32 1412.98 485.71
  C 1413.17 495.98 1412.15 506.33 1408.94 516.03
  A 2.04 2.02 36.2 0 0 1409.23 517.85
  Q 1415.41 526.20 1416.58 536.68
  Q 1416.33 543.25 1416.10 549.75
  Q 1416.04 551.41 1414.56 557.04
  Q 1414.23 557.27 1414.14 557.67
  Q 1413.89 558.84 1413.86 557.82
  Q 1413.84 557.16 1413.36 556.62
  A 1.75 1.68 76.8 0 0 1412.59 556.12
  Q 1409.18 555.02 1405.45 553.70
  Q 1405.35 553.66 1405.09 553.71
  Q 1404.74 553.78 1404.77 554.09
  A 0.28 0.27 79.2 0 1 1404.57 554.39
  Q 1404.10 554.51 1403.91 553.94
  C 1406.37 543.02 1406.47 532.31 1398.51 524.24
  Q 1397.47 523.18 1395.93 521.61
  A 0.92 0.92 0.0 0 1 1395.71 520.73
  Q 1398.44 511.28 1399.27 507.77
  C 1403.07 491.64 1402.65 472.25 1393.75 457.81
  C 1385.60 444.58 1372.00 435.55 1356.50 433.54
  C 1345.90 432.16 1336.18 432.93 1325.94 437.59
  A 1.14 1.14 0.0 0 1 1324.72 437.43
  C 1311.07 426.12 1290.08 425.96 1274.40 433.73
  A 2.51 2.50 -39.3 0 1 1271.75 433.47
  C 1258.34 423.10 1238.92 423.91 1224.39 430.78
  C 1218.77 433.44 1213.10 436.75 1209.25 441.55
  A 1.12 1.12 0.0 0 1 1207.79 441.80
  C 1203.94 439.44 1199.27 437.54 1194.67 436.88
  Q 1164.06 432.44 1142.48 455.05
  A 0.57 0.57 0.0 0 1 1141.67 455.06
  Q 1138.29 451.69 1131.43 447.10
  Q 1120.79 439.98 1108.78 438.49
  Q 1081.24 435.08 1056.84 447.41
  A 0.34 0.34 0.0 0 1 1056.35 447.05
  Q 1058.14 437.17 1055.46 423.29
  C 1052.50 407.96 1044.86 394.92 1030.97 387.64
  C 1020.53 382.17 1008.16 381.23 996.07 381.92
  C 968.53 383.48 943.56 398.91 929.08 422.20
  A 2.27 2.25 -60.0 0 1 926.10 423.01
  Q 919.05 419.26 911.34 418.21
  Q 884.73 414.61 862.48 429.71
  Q 857.88 432.83 854.41 437.14
  A 0.86 0.84 -59.0 0 1 853.44 437.39
  C 851.81 436.72 849.17 435.50 847.05 435.06
  C 835.19 432.59 818.93 432.84 807.71 438.71
  Q 804.48 440.41 804.27 440.51
  A 0.90 0.90 0.0 0 1 803.29 440.39
  Q 792.48 431.04 775.97 430.41
  Q 744.22 429.18 718.35 447.54
  A 0.52 0.52 0.0 0 1 717.62 447.41
  L 715.95 445.05
  A 3.59 3.50 1.8 0 0 715.21 444.28
  C 704.24 435.61 690.97 434.54 677.75 437.01
  A 0.56 0.56 0.0 0 1 677.10 436.33
  C 681.43 417.63 675.61 398.72 658.26 389.38
  Q 649.51 384.66 640.85 383.12
  Q 615.57 378.61 589.88 384.14
  Q 567.70 388.92 548.86 404.27
  C 531.83 418.15 522.76 439.77 517.88 460.48
  A 0.93 0.93 0.0 0 1 516.73 461.16
  C 513.88 460.40 512.54 458.87 511.79 455.78
  C 506.32 433.12 495.68 410.60 475.34 397.86
  Q 459.67 388.04 441.87 384.75
  Q 425.48 381.73 409.81 380.85
  A 1.93 1.93 0.0 0 1 408.08 379.48
  Q 405.26 370.11 402.47 361.27
  Q 399.95 353.24 395.99 346.78
  Q 394.47 344.31 391.32 342.45
  Q 387.61 340.25 383.54 338.01
  Z"
/>
<path fill="#ffffff" d="
  M 411.05 492.33
  Q 410.86 490.58 411.61 488.90
  Q 412.59 486.69 412.62 486.43
  C 412.89 483.90 410.71 479.46 410.25 478.00
  Q 394.09 427.11 379.75 378.26
  Q 378.13 372.76 375.59 370.41
  Q 372.29 367.36 367.13 369.26
  Q 352.21 374.75 351.88 374.87
  Q 311.11 389.24 270.08 403.85
  Q 266.08 405.27 263.81 406.34
  C 259.22 408.51 256.77 413.98 257.68 418.88
  Q 258.77 424.78 264.05 427.77
  Q 270.32 431.31 280.57 435.89
  A 0.62 0.62 0.0 0 1 280.92 436.64
  L 276.57 451.43
  Q 267.74 449.31 258.75 446.23
  C 252.77 444.17 247.20 441.01 244.03 435.51
  C 239.41 427.50 232.31 408.81 240.89 401.92
  Q 243.58 399.77 247.47 398.48
  Q 293.83 383.12 369.76 356.99
  C 375.35 355.06 381.93 354.41 383.98 361.36
  Q 390.82 384.56 417.55 471.73
  Q 418.09 473.48 417.46 475.57
  Q 415.03 483.76 411.05 492.33
  Z"
/>
<path fill="#a059e1" d="
  M 411.05 492.33
  Q 406.76 503.37 400.64 514.64
  Q 393.19 528.36 384.64 541.60
  Q 382.98 544.17 382.24 545.71
  C 379.33 551.77 382.42 557.02 386.75 561.26
  Q 394.30 568.68 406.38 574.26
  Q 395.21 579.84 379.86 585.58
  Q 335.42 602.20 323.99 605.71
  Q 317.13 607.81 311.60 605.63
  C 305.05 603.05 303.41 596.16 301.56 590.01
  Q 291.46 556.42 281.26 520.68
  A 0.35 0.31 41.4 0 1 281.25 520.60
  L 280.60 515.99
  Q 288.03 505.71 294.16 494.23
  C 298.73 485.67 303.40 472.80 296.69 464.16
  C 291.44 457.41 284.58 454.37 276.57 451.43
  L 280.92 436.64
  A 0.62 0.62 0.0 0 0 280.57 435.89
  Q 270.32 431.31 264.05 427.77
  Q 258.77 424.78 257.68 418.88
  C 256.77 413.98 259.22 408.51 263.81 406.34
  Q 266.08 405.27 270.08 403.85
  Q 311.11 389.24 351.88 374.87
  Q 352.21 374.75 367.13 369.26
  Q 372.29 367.36 375.59 370.41
  Q 378.13 372.76 379.75 378.26
  Q 394.09 427.11 410.25 478.00
  C 410.71 479.46 412.89 483.90 412.62 486.43
  Q 412.59 486.69 411.61 488.90
  Q 410.86 490.58 411.05 492.33
  Z
  M 354.13 396.62
  C 351.24 399.70 347.97 402.17 344.54 404.76
  A 0.53 0.53 0.0 0 0 344.56 405.62
  Q 352.23 410.92 360.33 418.76
  A 1.19 1.18 45.1 0 0 361.97 418.77
  Q 363.27 417.53 369.43 410.94
  Q 375.59 404.36 376.75 402.98
  A 1.19 1.18 41.1 0 0 376.63 401.35
  Q 368.27 393.78 362.48 386.48
  A 0.53 0.53 0.0 0 0 361.63 386.52
  C 359.27 390.11 357.02 393.53 354.13 396.62
  Z
  M 302.48 480.01
  Q 303.34 481.70 304.85 483.68
  Q 309.75 490.12 316.76 496.04
  Q 322.90 501.23 325.67 504.08
  C 332.00 510.62 335.74 515.32 342.04 521.59
  A 1.20 1.20 0.0 0 0 343.74 521.59
  C 350.54 514.88 356.86 510.60 366.21 503.84
  C 368.77 502.00 371.85 498.87 373.27 497.27
  Q 380.06 489.61 387.97 481.00
  A 1.08 1.08 0.0 0 0 387.57 479.26
  Q 379.28 475.93 367.26 470.80
  C 363.99 469.40 360.92 468.28 357.89 466.21
  Q 355.40 464.51 352.03 459.90
  Q 343.97 448.88 336.52 437.57
  A 0.56 0.56 0.0 0 0 335.56 437.62
  Q 327.91 452.28 315.49 465.76
  Q 307.67 474.24 302.67 478.92
  A 0.92 0.91 -35.6 0 0 302.48 480.01
  Z
  M 344.59 563.07
  Q 335.93 557.54 327.47 550.04
  Q 325.32 548.13 324.04 546.18
  A 0.50 0.50 0.0 0 0 323.15 546.29
  C 321.12 552.03 315.84 557.07 311.16 562.11
  A 2.03 2.02 -38.9 0 0 310.90 564.52
  Q 316.12 573.44 319.13 581.68
  A 0.67 0.67 0.0 0 0 320.31 581.84
  Q 326.19 573.40 335.56 568.55
  Q 344.37 563.98 344.58 563.85
  A 0.46 0.46 0.0 0 0 344.59 563.07
  Z"
/>
<path fill="#76cf0a" d="
  M 245.30 381.35
  Q 240.52 384.04 235.71 386.56
  Q 228.35 390.42 224.14 396.14
  C 221.69 399.47 220.11 401.95 217.26 404.62
  C 204.98 416.16 193.92 428.77 183.02 441.54
  A 5.02 4.98 11.9 0 1 180.64 443.08
  C 176.30 444.36 172.55 445.01 170.34 447.84
  Q 168.79 449.82 165.92 451.98
  Q 173.77 439.82 176.73 435.49
  Q 189.58 416.70 206.76 401.76
  Q 218.80 391.30 233.66 385.46
  Q 239.33 383.24 245.30 381.35
  Z"
/>
<path fill="#ffffff" d="
  M 369.43 410.94
  Q 363.27 417.53 361.97 418.77
  A 1.19 1.18 45.1 0 1 360.33 418.76
  Q 352.23 410.92 344.56 405.62
  A 0.53 0.53 0.0 0 1 344.54 404.76
  C 347.97 402.17 351.24 399.70 354.13 396.62
  C 357.02 393.53 359.27 390.11 361.63 386.52
  A 0.53 0.53 0.0 0 1 362.48 386.48
  Q 368.27 393.78 376.63 401.35
  A 1.19 1.18 41.1 0 1 376.75 402.98
  Q 375.59 404.36 369.43 410.94
  Z"
/>
<path fill="#fffea5" d="
  M 477.33 467.44
  Q 477.69 465.44 477.05 463.28
  Q 474.65 449.11 466.52 434.72
  Q 457.96 419.58 442.90 413.36
  Q 433.28 409.39 423.07 408.32
  L 415.15 408.27
  L 411.08 394.58
  A 0.44 0.44 0.0 0 1 411.51 394.01
  C 436.96 394.28 464.76 398.85 480.56 420.69
  C 492.45 437.11 496.34 458.94 496.28 478.91
  A 0.21 0.21 0.0 0 1 496.02 479.11
  L 480.37 474.75
  A 1.87 1.87 0.0 0 1 479.08 473.47
  L 477.33 467.44
  Z"
/>
<path fill="#ffffff" d="
  M 549.48 514.44
  C 557.15 529.57 572.68 542.14 590.49 540.97
  C 596.64 540.56 603.46 536.71 604.85 530.37
  Q 606.06 524.80 601.46 520.32
  C 597.90 516.85 593.86 513.83 589.31 511.20
  C 577.72 504.50 562.22 496.29 551.87 485.21
  C 538.54 470.95 536.14 450.93 544.96 433.47
  C 555.84 411.91 577.54 399.22 601.49 397.21
  C 614.90 396.08 630.42 396.58 641.88 401.39
  Q 650.28 404.91 655.26 412.48
  C 657.42 415.76 657.28 418.67 656.42 422.44
  C 654.72 429.81 649.17 438.14 645.09 442.87
  Q 641.96 446.49 632.19 457.19
  A 0.62 0.61 -48.8 0 1 631.34 457.25
  Q 619.37 447.41 603.26 449.11
  C 593.26 450.16 586.79 459.93 593.58 468.82
  Q 596.61 472.78 600.98 476.03
  C 609.06 482.05 619.38 488.01 628.28 494.68
  C 637.73 501.77 643.46 511.25 645.10 523.14
  C 646.78 535.37 646.61 547.73 642.60 559.12
  C 637.87 572.55 625.96 583.32 612.95 588.96
  Q 593.43 597.41 569.24 595.89
  Q 557.35 595.14 546.79 591.24
  Q 522.96 582.43 516.50 558.39
  A 2.44 2.43 -47.1 0 1 516.46 557.28
  Q 516.86 555.20 518.30 553.32
  Q 527.24 541.72 544.05 518.80
  Q 546.17 515.90 547.76 514.19
  A 1.06 1.06 0.0 0 1 549.48 514.44
  Z"
/>
<path fill="#ffffff" d="
  M 959.39 409.96
  Q 959.62 409.64 960.37 409.10
  Q 975.10 398.45 993.11 397.91
  C 1005.94 397.53 1015.30 399.46 1022.94 409.60
  C 1027.04 415.04 1027.58 420.16 1026.04 427.44
  Q 1024.97 432.53 1024.47 444.49
  C 1023.84 459.58 1020.59 474.32 1016.29 490.23
  Q 1010.90 510.17 1002.86 529.19
  A 0.54 0.54 0.0 0 0 1003.31 529.94
  Q 1006.30 530.14 1009.47 529.69
  Q 1023.50 527.68 1036.24 527.04
  Q 1042.39 526.74 1047.58 527.85
  C 1058.21 530.14 1062.43 541.43 1063.00 551.52
  Q 1063.16 554.32 1063.05 563.01
  C 1062.94 571.24 1059.60 579.37 1050.27 580.06
  A 2.21 2.20 -10.2 0 1 1047.99 578.48
  L 1047.00 575.09
  A 4.70 4.67 3.2 0 0 1044.28 572.07
  Q 1041.88 571.09 1039.25 571.01
  Q 1037.96 570.98 1018.73 570.91
  Q 1009.42 570.87 998.31 572.33
  Q 983.61 574.26 976.02 576.29
  Q 958.23 581.05 957.28 581.28
  Q 953.02 582.33 950.29 580.03
  C 944.20 574.88 948.06 568.55 951.79 563.04
  C 957.81 554.13 961.64 548.83 965.25 541.34
  Q 975.67 519.72 976.82 494.86
  C 977.72 475.35 977.02 454.92 972.28 436.38
  C 969.78 426.60 965.97 418.23 959.47 411.23
  A 1.01 1.00 -48.7 0 1 959.39 409.96
  Z"
/>
<path fill="#76cf0a" d="
  M 423.07 408.32
  L 422.40 408.61
  A 0.41 0.41 0.0 0 0 422.53 409.40
  C 439.42 411.01 455.19 418.07 464.30 432.94
  Q 473.25 447.57 476.31 464.34
  A 0.31 0.31 0.0 0 0 476.92 464.32
  L 477.05 463.28
  Q 477.69 465.44 477.33 467.44
  Q 473.04 464.16 468.94 461.12
  Q 449.81 446.93 426.27 443.95
  A 0.93 0.93 0.0 0 1 425.50 443.29
  L 415.15 408.27
  L 423.07 408.32
  Z"
/>
<path fill="#29873d" d="
  M 477.05 463.28
  L 476.92 464.32
  A 0.31 0.31 0.0 0 1 476.31 464.34
  Q 473.25 447.57 464.30 432.94
  C 455.19 418.07 439.42 411.01 422.53 409.40
  A 0.41 0.41 0.0 0 1 422.40 408.61
  L 423.07 408.32
  Q 433.28 409.39 442.90 413.36
  Q 457.96 419.58 466.52 434.72
  Q 474.65 449.11 477.05 463.28
  Z"
/>
<path fill="#ffffff" d="
  M 225.90 437.31
  Q 205.94 465.67 184.28 491.63
  Q 182.38 493.91 179.42 497.05
  Q 177.00 499.63 174.50 502.45
  Q 172.39 491.00 178.19 480.94
  Q 186.06 467.32 191.06 460.28
  Q 204.71 441.08 219.72 423.08
  A 0.37 0.37 0.0 0 1 220.35 423.18
  L 225.90 437.31
  Z"
/>
<path fill="#ffffff" d="
  M 909.62 550.99
  Q 910.88 565.63 909.47 575.70
  Q 907.41 590.39 895.18 596.63
  C 887.43 600.59 867.38 601.52 864.43 590.33
  Q 863.16 585.49 865.27 581.78
  C 868.67 575.79 870.59 572.42 871.78 566.80
  Q 874.06 556.06 874.36 551.53
  C 875.07 540.72 875.91 531.40 875.96 522.81
  C 876.11 498.80 876.65 486.05 874.44 468.26
  Q 873.50 460.67 871.58 456.41
  C 869.07 450.83 866.50 445.16 872.59 441.48
  Q 885.14 433.88 899.10 435.20
  C 910.32 436.26 905.64 449.32 903.18 455.40
  A 0.72 0.72 0.0 0 0 904.37 456.16
  Q 909.36 450.95 911.85 448.59
  C 921.55 439.40 938.19 433.97 949.27 444.30
  C 958.81 453.22 964.15 467.32 964.91 480.02
  C 966.45 506.03 959.99 545.70 927.87 550.99
  Q 924.95 551.48 918.72 551.18
  Q 912.84 550.89 910.08 550.55
  A 0.41 0.41 0.0 0 0 909.62 550.99
  Z
  M 912.98 481.62
  A 2.67 2.64 -17.3 0 0 911.99 483.48
  Q 911.83 485.32 909.27 507.75
  C 908.73 512.46 907.94 519.71 913.47 520.83
  Q 923.44 522.85 928.41 513.53
  Q 935.32 500.55 933.04 485.52
  C 932.52 482.13 930.60 476.85 927.31 475.25
  C 923.28 473.30 915.88 479.29 912.98 481.62
  Z"
/>
<path fill="#ffffff" d="
  M 302.67 478.92
  Q 307.67 474.24 315.49 465.76
  Q 327.91 452.28 335.56 437.62
  A 0.56 0.56 0.0 0 1 336.52 437.57
  Q 343.97 448.88 352.03 459.90
  Q 355.40 464.51 357.89 466.21
  C 360.92 468.28 363.99 469.40 367.26 470.80
  Q 379.28 475.93 387.57 479.26
  A 1.08 1.08 0.0 0 1 387.97 481.00
  Q 380.06 489.61 373.27 497.27
  C 371.85 498.87 368.77 502.00 366.21 503.84
  C 356.86 510.60 350.54 514.88 343.74 521.59
  A 1.20 1.20 0.0 0 1 342.04 521.59
  C 335.74 515.32 332.00 510.62 325.67 504.08
  Q 322.90 501.23 316.76 496.04
  Q 309.75 490.12 304.85 483.68
  Q 303.34 481.70 302.48 480.01
  A 0.92 0.91 -35.6 0 1 302.67 478.92
  Z"
/>
<path fill="#68d9f1" d="
  M 225.90 437.31
  Q 231.23 446.81 238.69 452.78
  C 245.48 458.22 254.28 461.24 264.07 465.04
  Q 271.61 467.97 276.25 471.91
  Q 279.62 474.77 276.82 478.58
  C 265.45 494.02 254.74 508.78 246.34 525.10
  C 241.20 535.09 238.70 547.67 242.51 558.04
  A 0.75 0.74 -85.2 0 1 241.44 558.95
  L 239.45 557.80
  A 4.54 4.53 8.8 0 1 237.29 554.85
  C 233.48 537.84 238.59 520.32 246.05 504.28
  Q 253.34 488.59 260.62 477.05
  A 1.87 1.87 0.0 0 0 259.84 474.37
  L 259.82 474.36
  A 2.27 2.27 0.0 0 0 256.90 475.26
  Q 254.72 478.97 247.63 491.13
  C 236.69 509.90 229.65 531.02 231.24 553.10
  A 0.33 0.32 -80.0 0 1 230.79 553.42
  Q 211.24 544.88 195.04 530.49
  Q 183.89 520.59 177.00 508.99
  Q 175.45 506.37 174.50 502.45
  Q 177.00 499.63 179.42 497.05
  Q 182.38 493.91 184.28 491.63
  Q 205.94 465.67 225.90 437.31
  Z"
/>
<path fill="#ffffff" d="
  M 1259.55 466.30
  A 0.54 0.54 0.0 0 0 1260.39 466.95
  C 1264.30 463.63 1269.24 457.62 1273.73 454.36
  Q 1285.59 445.74 1300.22 445.87
  C 1309.90 445.96 1315.38 451.42 1312.12 461.41
  Q 1310.28 467.04 1304.97 477.98
  A 0.45 0.45 0.0 0 0 1305.45 478.63
  L 1305.49 478.62
  A 2.03 1.99 12.3 0 0 1306.81 477.79
  Q 1311.67 470.82 1318.39 463.89
  C 1328.17 453.80 1339.03 448.92 1352.76 449.93
  C 1371.01 451.27 1374.84 469.90 1373.81 484.82
  Q 1373.02 496.23 1369.46 508.02
  Q 1362.73 530.29 1362.65 530.61
  Q 1361.20 536.25 1363.01 539.97
  C 1367.70 549.59 1376.95 537.80 1382.85 542.40
  A 2.34 2.12 -60.4 0 1 1383.44 545.05
  C 1376.82 560.89 1362.65 574.22 1344.85 575.09
  C 1327.03 575.97 1317.90 565.30 1321.55 547.75
  Q 1323.78 537.03 1326.62 529.13
  C 1330.70 517.80 1341.75 490.53 1336.69 484.38
  A 1.09 1.09 0.0 0 0 1335.17 484.22
  C 1329.93 488.35 1325.90 495.63 1323.45 500.92
  C 1319.95 508.46 1312.54 526.18 1304.93 537.94
  C 1300.08 545.45 1293.23 552.61 1284.51 554.65
  C 1280.90 555.50 1277.58 555.37 1275.87 551.94
  C 1273.81 547.82 1274.78 539.84 1275.93 535.94
  Q 1280.90 519.12 1282.14 514.38
  C 1283.58 508.91 1283.39 502.63 1278.92 498.72
  C 1276.53 496.63 1273.11 498.70 1271.61 500.89
  C 1261.14 516.21 1254.72 530.79 1254.20 547.76
  Q 1253.85 558.92 1253.65 561.87
  C 1252.83 573.43 1236.93 575.40 1228.44 573.36
  C 1221.99 571.81 1221.32 566.17 1222.62 560.32
  C 1224.45 552.06 1226.90 543.59 1228.41 534.15
  Q 1233.37 503.18 1231.68 472.78
  Q 1231.02 460.85 1225.51 450.53
  Q 1223.96 447.63 1226.30 445.85
  Q 1228.89 443.88 1232.81 442.79
  C 1243.34 439.89 1262.55 438.17 1263.04 453.50
  C 1263.21 458.80 1261.39 462.46 1259.55 466.30
  Z"
/>
<path fill="#ffffff" d="
  M 689.88 529.71
  Q 691.25 528.08 692.36 526.10
  Q 703.93 505.29 714.67 486.65
  Q 717.19 482.29 718.99 480.85
  C 724.02 476.84 728.01 480.28 730.12 485.13
  Q 731.50 488.29 732.39 495.09
  Q 732.63 496.91 733.83 510.62
  C 734.63 519.81 736.37 526.91 739.26 534.61
  A 0.82 0.82 0.0 0 0 740.84 534.45
  C 742.48 524.20 743.29 514.55 742.47 504.50
  Q 741.92 497.70 741.69 495.51
  Q 740.16 480.57 734.50 465.71
  Q 733.65 463.47 735.09 462.34
  C 747.86 452.34 762.73 446.00 779.01 446.34
  C 787.88 446.52 794.50 449.99 791.18 460.22
  C 785.81 476.79 776.11 503.01 772.55 521.26
  Q 768.54 541.79 768.08 544.12
  C 765.43 557.41 759.88 574.92 744.39 577.61
  Q 738.01 578.72 731.07 578.05
  C 721.46 577.11 717.75 571.18 717.16 562.12
  Q 716.05 545.21 716.02 544.50
  Q 715.89 542.21 715.20 539.90
  A 0.68 0.68 0.0 0 0 714.14 539.54
  C 710.73 542.04 708.72 549.79 706.66 556.43
  Q 705.33 560.73 701.42 568.14
  Q 693.12 583.86 675.49 581.88
  Q 665.29 580.74 664.27 569.83
  Q 661.16 536.49 654.34 506.69
  Q 650.39 489.42 646.23 473.43
  A 1.93 1.92 -26.2 0 1 646.92 471.42
  Q 655.01 465.10 664.89 460.66
  C 669.29 458.68 678.19 456.20 681.93 459.42
  C 685.09 462.15 685.05 466.51 685.02 470.57
  Q 685.01 473.71 685.24 477.43
  Q 686.61 499.39 688.07 525.49
  Q 688.19 527.65 689.08 529.60
  A 0.48 0.48 0.0 0 0 689.88 529.71
  Z"
/>
<path fill="#ffffff" d="
  M 834.95 546.71
  A 0.57 0.57 0.0 0 0 833.96 546.30
  Q 828.00 552.70 823.62 556.97
  C 814.95 565.43 798.90 571.62 788.30 562.97
  C 782.93 558.58 780.55 551.78 780.07 544.30
  C 779.34 533.11 781.32 521.21 783.57 510.30
  C 786.49 496.18 791.73 480.67 800.81 469.99
  C 810.68 458.39 824.56 451.14 840.27 451.87
  C 857.98 452.69 864.36 468.16 865.93 483.27
  Q 866.92 492.75 866.65 501.01
  Q 865.88 524.08 866.11 548.51
  C 866.15 553.45 865.54 557.76 861.73 561.23
  Q 856.39 566.08 848.44 565.99
  C 836.71 565.84 834.68 556.39 834.95 546.71
  Z
  M 833.78 477.25
  Q 830.26 478.36 828.28 481.84
  Q 819.29 497.63 817.16 515.50
  A 8.01 7.95 43.4 0 0 817.24 518.01
  Q 818.06 522.33 818.76 523.15
  Q 822.80 527.95 827.22 523.83
  C 835.38 516.22 838.41 501.15 838.96 490.53
  C 839.15 486.91 838.37 482.46 836.81 479.03
  A 2.96 2.27 67.9 0 0 833.78 477.25
  Z"
/>
<path fill="#ffffff" d="
  M 1153.20 465.24
  Q 1153.73 463.14 1154.99 462.18
  Q 1170.56 450.27 1188.27 452.42
  C 1195.39 453.29 1202.76 457.80 1207.86 463.54
  Q 1219.21 476.33 1220.66 494.28
  C 1221.95 510.13 1220.92 526.50 1214.50 541.09
  Q 1204.18 564.57 1180.47 567.72
  Q 1167.40 569.46 1158.51 564.67
  C 1146.32 558.10 1143.93 544.17 1143.86 530.63
  Q 1143.76 510.97 1147.59 497.05
  Q 1149.31 490.81 1153.65 475.31
  Q 1154.43 472.51 1153.18 466.16
  A 2.19 2.14 -44.4 0 1 1153.20 465.24
  Z
  M 1188.25 482.73
  C 1184.48 480.56 1180.10 484.95 1178.34 487.98
  C 1172.62 497.82 1163.92 521.24 1175.73 530.22
  C 1180.40 533.77 1184.92 530.78 1187.13 526.36
  C 1192.70 515.21 1192.70 504.22 1192.13 491.48
  C 1191.99 488.23 1191.27 484.47 1188.25 482.73
  Z"
/>
<path fill="#ffffff" d="
  M 1038.00 518.67
  Q 1038.10 515.80 1038.72 512.72
  Q 1041.44 499.41 1049.23 485.22
  C 1060.38 464.94 1079.04 452.03 1102.76 454.02
  C 1116.46 455.17 1126.80 464.38 1131.70 477.08
  C 1137.95 493.29 1138.37 510.20 1134.95 527.02
  C 1129.81 552.31 1110.21 573.21 1082.69 570.09
  Q 1077.55 569.51 1074.14 564.82
  Q 1072.40 562.44 1071.70 554.76
  C 1070.87 545.55 1069.38 536.18 1062.98 529.17
  Q 1056.93 522.56 1048.99 521.47
  Q 1040.61 520.32 1039.36 520.20
  A 1.50 1.49 3.5 0 1 1038.00 518.67
  Z
  M 1098.32 485.72
  C 1091.72 489.64 1087.22 500.15 1085.52 507.24
  Q 1083.32 516.35 1084.38 525.08
  C 1084.92 529.48 1088.99 535.83 1094.02 535.90
  C 1100.84 536.00 1105.10 525.17 1106.30 519.50
  C 1108.37 509.63 1110.43 498.28 1105.79 488.99
  C 1104.43 486.27 1101.39 483.90 1098.32 485.72
  Z"
/>
<path fill="#ffffff" d="
  M 448.96 478.15
  Q 447.65 494.56 441.96 510.13
  Q 440.55 503.81 442.90 496.66
  Q 444.51 491.76 445.99 484.31
  Q 446.10 483.79 445.78 482.56
  A 0.37 0.36 -26.6 0 0 445.20 482.37
  Q 439.97 486.59 437.94 491.20
  Q 435.95 495.70 429.50 513.79
  C 427.56 519.25 425.59 523.28 423.17 528.67
  C 421.95 531.40 418.73 543.48 424.35 543.09
  A 0.78 0.77 -85.4 0 0 425.05 542.49
  Q 425.64 539.82 427.19 536.78
  Q 427.88 535.43 428.97 535.30
  Q 429.14 535.28 429.37 536.31
  Q 425.39 541.26 427.89 546.12
  Q 432.74 555.58 444.89 556.72
  Q 445.76 556.78 446.33 557.11
  A 0.73 0.73 0.0 0 1 445.90 558.46
  L 440.25 558.02
  A 2.46 2.41 65.4 0 1 439.00 557.54
  Q 436.85 555.91 434.41 556.74
  Q 428.22 558.84 422.13 560.95
  A 1.00 0.99 62.3 0 0 421.66 562.48
  Q 422.10 563.08 422.23 564.35
  Q 415.07 560.79 409.83 556.94
  C 404.12 552.74 403.60 546.37 405.36 539.80
  Q 405.91 537.72 408.70 532.49
  C 419.28 512.66 428.72 495.81 433.29 475.58
  A 0.84 0.84 0.0 0 1 434.22 474.93
  Q 441.24 475.85 448.04 477.44
  Q 448.69 477.59 448.96 478.15
  Z"
/>
<path fill="#000320" d="
  M 912.98 481.62
  C 915.88 479.29 923.28 473.30 927.31 475.25
  C 930.60 476.85 932.52 482.13 933.04 485.52
  Q 935.32 500.55 928.41 513.53
  Q 923.44 522.85 913.47 520.83
  C 907.94 519.71 908.73 512.46 909.27 507.75
  Q 911.83 485.32 911.99 483.48
  A 2.67 2.64 -17.3 0 1 912.98 481.62
  Z"
/>
<path fill="#000320" d="
  M 833.78 477.25
  A 2.96 2.27 67.9 0 1 836.81 479.03
  C 838.37 482.46 839.15 486.91 838.96 490.53
  C 838.41 501.15 835.38 516.22 827.22 523.83
  Q 822.80 527.95 818.76 523.15
  Q 818.06 522.33 817.24 518.01
  A 8.01 7.95 43.4 0 1 817.16 515.50
  Q 819.29 497.63 828.28 481.84
  Q 830.26 478.36 833.78 477.25
  Z"
/>
<path fill="#29873d" d="
  M 449.66 478.17
  Q 449.70 480.64 449.46 482.72
  Q 446.50 508.33 434.99 529.06
  Q 432.76 533.07 429.65 537.70
  Q 425.83 543.38 430.33 548.72
  C 433.80 552.83 441.81 556.69 447.66 554.87
  Q 451.55 553.66 453.41 551.88
  Q 462.25 543.37 467.56 531.86
  C 471.62 523.07 475.16 512.15 476.44 502.51
  Q 476.99 498.40 477.92 490.56
  A 0.42 0.42 0.0 0 1 478.64 490.33
  Q 478.79 490.48 478.80 491.04
  Q 477.68 510.49 470.25 528.41
  Q 465.80 539.14 457.47 548.97
  Q 451.96 555.49 444.89 556.72
  Q 432.74 555.58 427.89 546.12
  Q 425.39 541.26 429.37 536.31
  Q 437.71 524.00 441.96 510.13
  Q 447.65 494.56 448.96 478.15
  Q 449.88 478.42 449.66 478.17
  Z"
/>
<path fill="#76cf0a" d="
  M 479.25 486.59
  L 478.80 491.04
  Q 478.79 490.48 478.64 490.33
  A 0.42 0.42 0.0 0 0 477.92 490.56
  Q 476.99 498.40 476.44 502.51
  C 475.16 512.15 471.62 523.07 467.56 531.86
  Q 462.25 543.37 453.41 551.88
  Q 451.55 553.66 447.66 554.87
  C 441.81 556.69 433.80 552.83 430.33 548.72
  Q 425.83 543.38 429.65 537.70
  Q 432.76 533.07 434.99 529.06
  Q 446.50 508.33 449.46 482.72
  Q 449.70 480.64 449.66 478.17
  Q 453.11 478.89 456.34 479.74
  Q 468.18 482.83 479.25 486.59
  Z"
/>
<path fill="#fffea5" d="
  M 441.96 510.13
  Q 437.71 524.00 429.37 536.31
  Q 429.14 535.28 428.97 535.30
  Q 427.88 535.43 427.19 536.78
  Q 425.64 539.82 425.05 542.49
  A 0.78 0.77 -85.4 0 1 424.35 543.09
  C 418.73 543.48 421.95 531.40 423.17 528.67
  C 425.59 523.28 427.56 519.25 429.50 513.79
  Q 435.95 495.70 437.94 491.20
  Q 439.97 486.59 445.20 482.37
  A 0.37 0.36 -26.6 0 1 445.78 482.56
  Q 446.10 483.79 445.99 484.31
  Q 444.51 491.76 442.90 496.66
  Q 440.55 503.81 441.96 510.13
  Z"
/>
<path fill="#000320" d="
  M 1188.25 482.73
  C 1191.27 484.47 1191.99 488.23 1192.13 491.48
  C 1192.70 504.22 1192.70 515.21 1187.13 526.36
  C 1184.92 530.78 1180.40 533.77 1175.73 530.22
  C 1163.92 521.24 1172.62 497.82 1178.34 487.98
  C 1180.10 484.95 1184.48 480.56 1188.25 482.73
  Z"
/>
<path fill="#000320" d="
  M 1098.32 485.72
  C 1101.39 483.90 1104.43 486.27 1105.79 488.99
  C 1110.43 498.28 1108.37 509.63 1106.30 519.50
  C 1105.10 525.17 1100.84 536.00 1094.02 535.90
  C 1088.99 535.83 1084.92 529.48 1084.38 525.08
  Q 1083.32 516.35 1085.52 507.24
  C 1087.22 500.15 1091.72 489.64 1098.32 485.72
  Z"
/>
<path fill="#fffea5" d="
  M 479.25 486.59
  L 495.17 490.65
  A 0.95 0.95 0.0 0 1 495.88 491.64
  Q 493.18 527.60 475.69 557.66
  Q 468.23 570.47 457.80 581.03
  Q 456.15 582.70 454.02 581.53
  Q 438.17 572.83 422.23 564.35
  Q 422.10 563.08 421.66 562.48
  A 1.00 0.99 62.3 0 1 422.13 560.95
  Q 428.22 558.84 434.41 556.74
  Q 436.85 555.91 439.00 557.54
  A 2.46 2.41 65.4 0 0 440.25 558.02
  L 445.90 558.46
  A 0.73 0.73 0.0 0 0 446.33 557.11
  Q 445.76 556.78 444.89 556.72
  Q 451.96 555.49 457.47 548.97
  Q 465.80 539.14 470.25 528.41
  Q 477.68 510.49 478.80 491.04
  L 479.25 486.59
  Z"
/>
<path fill="#29873d" d="
  M 1403.91 553.94
  Q 1404.10 554.51 1404.57 554.39
  A 0.28 0.27 79.2 0 0 1404.77 554.09
  Q 1404.74 553.78 1405.09 553.71
  Q 1405.35 553.66 1405.45 553.70
  Q 1409.18 555.02 1412.59 556.12
  A 1.75 1.68 76.8 0 1 1413.36 556.62
  Q 1413.84 557.16 1413.86 557.82
  Q 1413.89 558.84 1414.14 557.67
  Q 1414.23 557.27 1414.56 557.04
  Q 1414.64 557.65 1414.50 558.22
  C 1412.31 567.06 1408.90 575.20 1403.58 582.64
  Q 1393.70 596.43 1379.50 605.56
  Q 1376.27 607.63 1372.86 609.13
  Q 1368.38 611.11 1365.96 612.17
  Q 1357.08 616.05 1347.47 617.12
  A 0.98 0.94 20.9 0 0 1346.93 617.35
  Q 1346.32 617.86 1345.61 617.83
  Q 1343.27 617.74 1339.38 618.41
  Q 1336.49 618.91 1333.15 618.90
  Q 1310.43 618.87 1294.21 603.67
  A 1.98 1.96 56.0 0 0 1292.17 603.26
  C 1288.57 604.61 1283.57 606.77 1278.90 607.99
  Q 1259.40 613.09 1247.92 615.08
  Q 1240.21 616.42 1233.24 616.75
  Q 1215.36 617.60 1199.99 609.50
  A 3.96 3.93 49.5 0 0 1196.89 609.25
  Q 1187.13 612.58 1176.31 613.66
  Q 1171.19 614.18 1166.77 613.57
  Q 1158.78 612.48 1157.22 611.96
  Q 1145.77 608.15 1135.62 600.53
  A 1.27 1.27 0.0 0 0 1134.22 600.44
  C 1121.46 607.78 1107.01 611.88 1092.91 613.57
  Q 1083.24 614.74 1065.75 615.08
  C 1061.47 615.16 1055.82 614.18 1051.08 614.13
  Q 1033.48 613.97 1021.11 614.17
  C 1018.09 614.21 1015.17 614.95 1011.80 615.09
  Q 1009.26 615.20 1004.78 615.75
  Q 993.66 617.12 990.27 617.54
  Q 985.18 618.18 963.95 622.97
  A 3.67 3.63 -50.5 0 1 963.06 623.06
  C 960.44 622.99 958.39 623.99 955.76 624.02
  Q 950.03 624.09 949.02 624.08
  A 4.12 4.01 51.5 0 1 947.76 623.92
  L 936.68 620.65
  A 2.10 2.09 -57.0 0 0 934.71 621.07
  Q 907.97 644.21 872.74 640.55
  Q 868.46 640.10 864.95 638.97
  C 852.38 634.93 841.93 629.40 833.90 619.18
  A 2.65 2.61 13.7 0 1 833.61 618.71
  Q 831.85 615.23 829.42 612.19
  A 0.92 0.91 -22.7 0 0 828.58 611.85
  Q 828.05 611.93 823.52 613.06
  Q 810.32 616.35 797.88 613.60
  Q 790.38 611.94 783.95 607.82
  A 4.98 4.96 -42.1 0 0 779.02 607.58
  C 777.71 608.24 776.48 609.54 774.83 610.63
  Q 767.26 615.63 757.06 618.83
  C 746.92 622.01 736.83 622.71 727.43 622.01
  Q 722.12 621.61 714.88 618.40
  Q 712.86 617.50 711.38 618.12
  C 705.57 620.54 700.85 623.19 695.33 624.87
  Q 687.35 627.30 678.70 627.12
  Q 674.80 627.05 671.38 626.18
  Q 665.89 624.78 664.38 623.89
  Q 659.28 620.89 656.24 619.28
  A 1.06 1.05 -51.5 0 0 655.05 619.42
  Q 647.62 626.04 641.18 629.90
  Q 636.22 632.88 626.95 636.82
  Q 620.38 639.62 611.91 641.56
  Q 592.01 646.13 571.49 644.95
  Q 569.18 644.82 568.40 644.63
  C 565.80 644.02 563.32 644.11 560.69 643.65
  C 546.17 641.15 531.58 635.63 519.87 626.78
  Q 513.10 621.68 511.76 620.50
  Q 506.07 615.49 500.92 608.48
  A 0.69 0.67 76.6 0 0 500.50 608.21
  Q 499.96 608.12 499.76 608.48
  Q 499.25 608.13 498.78 608.28
  L 497.68 608.34
  A 1.31 1.28 20.6 0 0 496.86 608.70
  C 487.94 617.30 474.30 624.75 461.68 624.13
  C 456.09 623.86 451.10 622.31 445.88 620.87
  Q 442.51 619.93 440.22 622.47
  A 2.22 2.16 -82.7 0 1 439.59 622.97
  Q 420.42 633.39 400.93 640.19
  C 393.44 642.80 386.06 646.15 379.01 648.09
  C 371.68 650.10 357.27 654.87 347.18 656.81
  Q 327.81 660.55 317.93 661.45
  Q 296.84 663.39 276.38 659.62
  Q 273.77 659.14 265.30 657.14
  Q 258.31 655.49 254.37 654.04
  Q 231.05 645.49 211.53 630.45
  Q 207.34 627.22 197.03 617.22
  Q 186.31 606.84 177.88 593.90
  Q 157.06 561.92 151.88 524.54
  C 150.68 515.90 150.42 507.26 150.97 499.21
  A 0.35 0.35 0.0 0 1 151.66 499.18
  Q 153.06 507.43 156.96 515.23
  Q 161.25 523.79 163.81 530.65
  Q 171.15 550.41 179.67 567.58
  Q 191.40 591.24 210.77 610.52
  Q 239.43 639.04 279.30 645.13
  Q 311.07 649.99 342.45 642.69
  C 367.18 636.94 389.15 629.66 412.08 620.11
  C 423.70 615.27 431.96 611.84 440.05 604.68
  A 1.52 1.50 37.1 0 1 441.71 604.46
  Q 468.50 617.36 488.74 595.93
  Q 495.37 588.90 500.26 580.90
  A 0.26 0.26 0.0 0 1 500.72 580.94
  C 505.62 592.61 514.01 603.50 523.03 611.43
  Q 530.57 618.05 540.98 622.79
  Q 542.39 623.42 548.85 625.65
  Q 553.49 627.24 556.88 627.92
  C 580.76 632.72 607.62 630.58 629.51 619.61
  Q 643.09 612.81 655.01 601.50
  Q 658.46 598.22 659.07 597.65
  A 0.34 0.34 0.0 0 1 659.63 597.81
  Q 661.64 606.00 668.44 610.21
  Q 674.40 613.90 683.45 612.95
  Q 698.53 611.36 708.97 600.06
  A 0.76 0.75 -49.7 0 1 709.98 599.97
  C 720.70 608.01 731.86 609.12 745.42 607.23
  C 757.99 605.48 771.02 597.82 780.00 588.92
  A 0.75 0.74 -45.3 0 1 781.04 588.91
  C 793.67 601.06 814.51 605.34 829.78 595.27
  C 831.83 593.92 833.98 591.49 835.51 590.05
  A 0.50 0.50 0.0 0 1 836.34 590.32
  Q 838.84 603.67 847.88 613.32
  C 855.79 621.77 867.04 625.64 878.68 626.09
  Q 904.62 627.09 924.11 611.11
  Q 932.16 604.51 937.39 598.43
  A 0.49 0.48 -44.3 0 1 938.13 598.43
  Q 939.30 599.83 940.10 601.70
  C 943.15 608.87 951.50 610.11 958.25 608.99
  Q 970.19 607.01 988.22 602.94
  Q 991.73 602.15 1005.38 600.40
  Q 1013.13 599.41 1022.67 599.29
  Q 1044.42 599.03 1045.25 599.05
  Q 1064.44 599.68 1075.93 599.84
  Q 1100.90 600.19 1123.03 590.15
  Q 1128.83 587.52 1134.23 583.73
  A 2.28 2.28 0.0 0 1 1137.11 583.95
  Q 1155.72 601.80 1181.97 598.61
  Q 1191.46 597.45 1200.34 592.21
  A 0.87 0.86 50.9 0 1 1201.38 592.32
  Q 1202.01 592.91 1202.88 593.79
  C 1206.94 597.91 1212.31 600.00 1218.26 601.03
  Q 1231.47 603.32 1245.01 601.00
  Q 1272.58 596.27 1297.82 586.21
  A 0.69 0.69 0.0 0 1 1298.65 586.47
  Q 1309.71 603.49 1330.34 604.46
  C 1345.20 605.15 1362.32 599.68 1373.84 592.53
  C 1388.40 583.48 1399.41 570.68 1403.91 553.94
  Z"
/>
<path fill="#ffffff" d="
  M 280.60 515.99
  L 281.25 520.60
  A 0.35 0.31 41.4 0 0 281.26 520.68
  Q 291.46 556.42 301.56 590.01
  C 303.41 596.16 305.05 603.05 311.60 605.63
  Q 317.13 607.81 323.99 605.71
  Q 335.42 602.20 379.86 585.58
  Q 395.21 579.84 406.38 574.26
  L 420.77 581.31
  A 0.49 0.49 0.0 0 1 420.74 582.20
  Q 376.21 600.93 324.62 621.10
  C 316.19 624.39 300.06 631.61 296.05 618.18
  Q 295.82 617.42 275.40 546.41
  Q 274.36 542.79 271.09 530.88
  Q 270.60 529.06 272.18 526.96
  Q 276.18 521.65 280.60 515.99
  Z"
/>
<path fill="#17370e" d="
  M 499.76 608.48
  Q 499.96 608.12 500.50 608.21
  A 0.69 0.67 76.6 0 1 500.92 608.48
  Q 506.07 615.49 511.76 620.50
  Q 513.10 621.68 519.87 626.78
  C 531.58 635.63 546.17 641.15 560.69 643.65
  C 563.32 644.11 565.80 644.02 568.40 644.63
  Q 569.18 644.82 571.49 644.95
  Q 592.01 646.13 611.91 641.56
  Q 620.38 639.62 626.95 636.82
  Q 636.22 632.88 641.18 629.90
  Q 647.62 626.04 655.05 619.42
  A 1.06 1.05 -51.5 0 1 656.24 619.28
  Q 659.28 620.89 664.38 623.89
  Q 665.89 624.78 671.38 626.18
  Q 674.80 627.05 678.70 627.12
  Q 687.35 627.30 695.33 624.87
  C 700.85 623.19 705.57 620.54 711.38 618.12
  Q 712.86 617.50 714.88 618.40
  Q 722.12 621.61 727.43 622.01
  C 736.83 622.71 746.92 622.01 757.06 618.83
  Q 767.26 615.63 774.83 610.63
  C 776.48 609.54 777.71 608.24 779.02 607.58
  A 4.98 4.96 -42.1 0 1 783.95 607.82
  Q 790.38 611.94 797.88 613.60
  Q 810.32 616.35 823.52 613.06
  Q 828.05 611.93 828.58 611.85
  A 0.92 0.91 -22.7 0 1 829.42 612.19
  Q 831.85 615.23 833.61 618.71
  A 2.65 2.61 13.7 0 0 833.90 619.18
  C 841.93 629.40 852.38 634.93 864.95 638.97
  Q 868.46 640.10 872.74 640.55
  Q 907.97 644.21 934.71 621.07
  A 2.10 2.09 -57.0 0 1 936.68 620.65
  L 947.76 623.92
  A 4.12 4.01 51.5 0 0 949.02 624.08
  Q 950.03 624.09 955.76 624.02
  C 958.39 623.99 960.44 622.99 963.06 623.06
  A 3.67 3.63 -50.5 0 0 963.95 622.97
  Q 985.18 618.18 990.27 617.54
  Q 993.66 617.12 1004.78 615.75
  Q 1009.26 615.20 1011.80 615.09
  C 1015.17 614.95 1018.09 614.21 1021.11 614.17
  Q 1033.48 613.97 1051.08 614.13
  C 1055.82 614.18 1061.47 615.16 1065.75 615.08
  Q 1083.24 614.74 1092.91 613.57
  C 1107.01 611.88 1121.46 607.78 1134.22 600.44
  A 1.27 1.27 0.0 0 1 1135.62 600.53
  Q 1145.77 608.15 1157.22 611.96
  Q 1158.78 612.48 1166.77 613.57
  Q 1171.19 614.18 1176.31 613.66
  Q 1187.13 612.58 1196.89 609.25
  A 3.96 3.93 49.5 0 1 1199.99 609.50
  Q 1215.36 617.60 1233.24 616.75
  Q 1240.21 616.42 1247.92 615.08
  Q 1259.40 613.09 1278.90 607.99
  C 1283.57 606.77 1288.57 604.61 1292.17 603.26
  A 1.98 1.96 56.0 0 1 1294.21 603.67
  Q 1310.43 618.87 1333.15 618.90
  Q 1336.49 618.91 1339.38 618.41
  Q 1343.27 617.74 1345.61 617.83
  Q 1346.32 617.86 1346.93 617.35
  A 0.98 0.94 20.9 0 1 1347.47 617.12
  Q 1357.08 616.05 1365.96 612.17
  Q 1368.38 611.11 1372.86 609.13
  Q 1376.27 607.63 1379.50 605.56
  Q 1393.70 596.43 1403.58 582.64
  C 1408.90 575.20 1412.31 567.06 1414.50 558.22
  Q 1414.64 557.65 1414.56 557.04
  Q 1416.04 551.41 1416.10 549.75
  Q 1416.33 543.25 1416.58 536.68
  Q 1419.34 560.21 1407.42 579.19
  Q 1389.03 608.46 1353.52 617.49
  Q 1348.43 618.78 1341.90 619.53
  Q 1331.87 620.67 1324.76 619.60
  C 1312.66 617.78 1302.12 613.17 1293.80 604.28
  A 1.35 1.33 -35.1 0 0 1292.20 604.01
  Q 1287.68 606.33 1281.75 608.19
  Q 1269.47 612.05 1250.25 615.96
  Q 1247.02 616.62 1236.87 617.58
  Q 1226.61 618.54 1216.42 616.63
  C 1210.34 615.49 1204.53 613.07 1199.05 610.10
  A 1.98 1.97 48.0 0 0 1197.37 610.01
  Q 1183.53 615.73 1167.99 614.82
  Q 1149.89 613.75 1136.03 601.79
  A 1.70 1.70 0.0 0 0 1134.04 601.61
  Q 1119.25 610.32 1101.77 613.47
  Q 1079.10 617.55 1052.99 615.21
  Q 1050.54 614.99 1031.99 615.05
  Q 1021.81 615.08 1011.03 616.18
  C 996.08 617.72 981.95 619.95 968.39 623.20
  Q 958.62 625.55 949.51 625.15
  Q 944.51 624.93 941.44 623.56
  Q 937.68 621.88 936.50 621.63
  A 1.33 1.29 30.8 0 0 935.40 621.89
  Q 923.28 631.73 914.86 635.37
  Q 896.24 643.42 876.01 641.85
  Q 867.64 641.20 859.28 638.22
  Q 844.12 632.82 834.86 621.90
  Q 832.23 618.79 829.63 613.48
  A 1.11 1.10 80.7 0 0 828.79 612.87
  C 827.60 612.70 826.25 613.79 825.29 614.00
  Q 816.37 615.91 813.50 616.15
  Q 796.10 617.62 782.09 607.71
  A 1.04 1.04 0.0 0 0 780.85 607.73
  Q 768.50 617.25 753.86 621.17
  C 745.38 623.44 735.01 623.78 726.26 622.95
  Q 719.64 622.32 714.09 619.18
  A 2.82 2.81 45.1 0 0 711.33 619.17
  Q 702.29 624.24 692.15 627.11
  C 688.25 628.22 682.52 628.57 679.01 628.47
  Q 666.81 628.13 656.87 620.91
  A 1.48 1.48 0.0 0 0 655.04 620.99
  Q 636.88 636.83 613.08 642.62
  Q 601.81 645.35 591.50 645.96
  C 584.83 646.36 581.21 646.88 575.84 646.39
  Q 573.19 646.14 567.20 645.79
  Q 563.12 645.55 553.88 643.50
  C 535.46 639.42 519.29 630.21 506.09 616.66
  Q 505.10 615.63 503.18 613.07
  C 502.22 611.80 500.08 609.93 499.76 608.48
  Z"
/>
<path fill="#ffffff" d="
  M 344.58 563.85
  Q 344.37 563.98 335.56 568.55
  Q 326.19 573.40 320.31 581.84
  A 0.67 0.67 0.0 0 1 319.13 581.68
  Q 316.12 573.44 310.90 564.52
  A 2.03 2.02 -38.9 0 1 311.16 562.11
  C 315.84 557.07 321.12 552.03 323.15 546.29
  A 0.50 0.50 0.0 0 1 324.04 546.18
  Q 325.32 548.13 327.47 550.04
  Q 335.93 557.54 344.59 563.07
  A 0.46 0.46 0.0 0 1 344.58 563.85
  Z"
/>
<path fill="#ffffff" d="
  M 233.36 571.88
  Q 229.19 583.73 222.50 594.00
  Q 211.72 583.72 202.76 570.74
  Q 194.99 559.48 188.68 547.60
  A 0.36 0.35 -85.1 0 1 189.21 547.15
  Q 196.48 552.89 206.13 557.79
  Q 219.83 564.77 233.36 571.88
  Z"
/>
<path fill="#a059e1" d="
  M 222.50 594.00
  Q 229.19 583.73 233.36 571.88
  Q 242.56 579.15 254.01 582.50
  Q 262.22 584.89 270.47 586.12
  A 2.09 2.09 0.0 0 1 272.17 587.61
  L 281.37 619.05
  A 0.38 0.38 0.0 0 1 280.96 619.53
  Q 271.79 618.50 265.79 617.39
  C 249.55 614.40 234.03 606.36 222.50 594.00
  Z"
/>
</svg>
